<?xml version="1.0" encoding="utf-8"?>
<!-- Generator: Adobe Illustrator 21.0.0, SVG Export Plug-In . SVG Version: 6.00 Build 0)  -->
<svg version="1.1" id="Layer_1" xmlns="http://www.w3.org/2000/svg" xmlns:xlink="http://www.w3.org/1999/xlink" x="0px" y="0px"
	 width="307.4px" height="92px" viewBox="0 0 307.4 92" style="enable-background:new 0 0 307.4 92;" xml:space="preserve">
<style type="text/css">
	.st0{fill:#5776B7;}
	.st1{fill:#FFFFFF;}
</style>
<g>
	<rect y="61.3" class="st0" width="307.4" height="30.7"/>
	<rect y="-0.1" class="st1" width="307.4" height="61.4"/>
	<g>
		
			<rect x="229.6" y="14.8" transform="matrix(0.7071 -0.7071 0.7071 0.7071 56.5278 167.3305)" class="st0" width="1.3" height="1.3"/>
		<polygon class="st0" points="286.5,0.5 286.2,0.5 281.4,5.2 286.5,5.2 		"/>
		<polygon class="st0" points="237.3,13.8 241.5,10.8 236.6,11.9 234.6,13.8 		"/>
		<polygon class="st0" points="233.4,13.8 240,5.6 232,12.3 231.6,14.2 		"/>
		<polygon class="st0" points="291.6,0.5 291.3,0.5 286.5,5.2 291.6,5.2 		"/>
		<polygon class="st0" points="273.1,15.6 260.9,15.6 273.1,25.1 		"/>
		<polygon class="st0" points="212.9,2.1 206.2,2.1 209.5,5.5 212.9,8.8 		"/>
		<polygon class="st0" points="235.5,4.2 232.1,9 231.9,11.4 233.8,9.8 		"/>
		<polygon class="st0" points="237.1,17 234.4,17 236.5,18.9 241.4,20 		"/>
		<polygon class="st0" points="233.6,14.3 232,15.4 233.6,16.4 242.8,15.4 		"/>
		<path class="st0" d="M22,3.4l-5.2,5.2l5.2,5.2l5.2-5.2L22,3.4z M17.8,8.5L22,4.4l4.2,4.2L22,12.7L17.8,8.5z"/>
		<polygon class="st0" points="226.7,16.4 228.4,15.4 226.7,14.3 217.5,15.4 		"/>
		<polygon class="st0" points="228.5,9 225.1,4.2 226.9,9.8 228.7,11.4 		"/>
		<polygon class="st0" points="233.1,16.8 231.2,16.4 231.6,18.3 239.7,24.9 		"/>
		<polygon class="st0" points="189.4,25.6 186,22.2 186,29 192.7,29 189.4,25.6 196.1,25.6 192.7,22.2 189.4,18.9 		"/>
		<polygon class="st0" points="227.2,13.8 229,14.2 228.6,12.3 220.5,5.7 		"/>
		<polygon class="st0" points="229.2,16.6 227.4,17 220.7,25.2 228.8,18.5 		"/>
		<polygon class="st0" points="223.4,13.7 226.2,13.7 224.1,11.9 219.2,10.8 		"/>
		<polygon class="st0" points="228.5,21.8 228.7,19.5 226.9,21 225.1,26.6 		"/>
		<polygon class="st0" points="248.8,15.6 260.9,15.6 248.8,6 		"/>
		<polygon class="st0" points="260.9,6 260.9,15.6 273.1,6 		"/>
		<polygon class="st0" points="260.9,25.1 260.9,15.6 248.8,25.1 		"/>
		<polygon class="st0" points="231.3,19.1 230.2,17.5 229.2,19.1 230.2,28.4 		"/>
		<polygon class="st0" points="230.2,2.6 229.2,11.9 230.2,13.5 231.3,11.9 		"/>
		<polygon class="st0" points="226.4,17.1 223.7,17.1 219.4,20 224.3,18.9 		"/>
		<polygon class="st0" points="232.1,21.8 235.5,26.6 233.8,21 231.9,19.5 		"/>
		<path class="st0" d="M26.9,22.2l-5.2-5.2l-5.2,5.2l5.2,5.2L26.9,22.2z M21.7,18l4.2,4.2l-4.2,4.2l-4.2-4.2L21.7,18z"/>
		<polygon class="st0" points="146.8,15.6 138,15.6 141.7,17.1 		"/>
		<polygon class="st0" points="144.2,9.2 138,15.6 141.7,14 		"/>
		<polygon class="st0" points="212.9,12.2 209.5,15.5 212.9,18.9 		"/>
		<polygon class="st0" points="131.7,9.4 138,15.6 136.5,11.9 		"/>
		<polygon class="st0" points="68,24.7 85,24.7 84.7,23.4 68.3,23.4 		"/>
		<path class="st0" d="M115.3,17.4l1.9,5.4V8.2l-1.9,5.4h-6.1V7.5l5.4-1.9H99.9l5.4,1.9v6.1h-6.1l-1.9-5.4v14.7l1.9-5.4h6.1v6.1
			l-5.4,1.9h14.7l-5.4-1.9v-6.1H115.3z M107.7,16v7.6h-0.8v-7.7h-7.7v-0.8h7.7V7.5h0.8v7.6h7.6V16H107.7z"/>
		<path class="st0" d="M85.1,6.3h-3.4v3.4h-3.4V6.3h-3.4v3.4h-3.4V6.3h-3.4v3.5c0,2.1,0.8,4.1,2.1,5.6l-1.7,6.7h15.8l-1.5-6.7
			c1.3-1.5,2.1-3.4,2.1-5.6V6.3z M78.2,18.3h-3.4v-5.1h3.4V18.3z"/>
		<path class="st0" d="M142.7,13.6l3.2-6.1l-6.1,3.2l-2-6.5l-2,6.5l-6.1-3.2l3.2,6.1l-6.5,2l6.5,2l-3.2,6.1l6.1-3.2l2,6.5l2-6.5
			l6.1,3.2l-3.2-6.1l6.5-2L142.7,13.6z M145.1,22.7l-5.4-2.9l-1.8,5.8l-1.8-5.8l-5.4,2.9l2.8-5.4l-5.8-1.8l5.8-1.8l-2.8-5.4l5.4,2.9
			l1.8-5.8l1.8,5.8l5.4-2.9l-2.8,5.4l5.8,1.8l-5.8,1.8L145.1,22.7z"/>
		<path class="st0" d="M170.2,7.2c-0.6-0.4-1.5-1.4-2.3-2.3c-0.1,1.4-0.6,2-1.1,2.4c-1,0.8-1.7,1.1-2.6,1.6
			c-0.8,0.4-4.9,2.9-4.9,8.2s4.5,9.2,9.4,9.2s9.3-3.6,9.3-9.1c0-5.4-4.1-7.9-4.7-8.3C172.3,8.1,171.3,7.9,170.2,7.2z M161.4,12.3
			c-0.1-0.1-0.3-0.2-0.1-0.7c1-1.5,3-2.6,3.5-2.9c0.2-0.1,1.1-0.6,2.1-1.2c0.6-0.4,1-0.8,1.2-2.2c0.1,0.5,0.2,0.8,0.1,1.4
			c0,0.6-0.5,0.9-0.6,1c-0.1,0.1-0.6,0.3-0.6,0.3c-0.1,0.1-0.1,0.1,0,0.1c0.1,0.1,0.3,0.1,0.3,0.3c0,0.1-0.1,0.4-0.5,0.9
			c-0.8,0.9-1.5,1.4-3,2.3C162.2,12.4,161.5,12.3,161.4,12.3z M173.5,24.3c-0.1,0.1-1,0.8-2.1,0.9c-1.1,0.1-2.6,0.1-3.5-0.7
			c-0.1-0.1-0.1-0.3,0-0.4c0.1-0.1,0.2-0.1,0.3-0.1c0.1,0,0.1,0,0.1,0.1c0.4,0.3,1,0.6,2.3,0.6s2.3-0.3,2.7-0.7
			c0.2-0.1,0.3,0,0.3,0.1C173.6,24,173.6,24.2,173.5,24.3z M169.9,22.4c0.2-0.2,0.6-0.6,1-0.7s0.6-0.1,0.9-0.1s0.7,0,0.9,0.2
			c0.3,0.1,0.4,0.6,0.5,0.8c0.1,0.2,0,0.3-0.1,0.4s-0.1,0.1-0.3-0.2c-0.1-0.3-0.3-0.6-1-0.6s-1,0.3-1.3,0.6
			c-0.3,0.3-0.5,0.4-0.6,0.2C169.6,22.8,169.6,22.6,169.9,22.4z M176.1,17.4c1,0,1.3,1.1,1.3,1.7s-0.2,1.8-0.7,2.5
			c-0.5,0.7-0.8,1-1.4,1c-0.8-0.1-2.2-2.3-3.2-2.4c-1.2-0.1-3.8,2.5-5.8,2.5c-1.2,0-1.6-0.2-2-0.5c-0.6-0.4-0.9-1.1-0.9-2
			c0-1.6,1.5-3.1,3.4-3.2c2.3,0,4.1,2.5,5.2,2.4C173.1,19.4,175.1,17.4,176.1,17.4z"/>
		<polygon class="st0" points="138,6.6 138,15.5 139.5,11.7 		"/>
		<polygon class="st0" points="209.5,12.2 209.5,5.5 202.8,5.5 		"/>
		<polygon class="st0" points="131.6,21.9 138,15.6 134.2,17.2 		"/>
		<polygon class="st0" points="144.2,21.7 138,15.6 139.5,19.3 		"/>
		<polygon class="st0" points="129.1,15.6 138,15.6 134.3,14 		"/>
		<polygon class="st0" points="138,24.4 138,15.6 136.4,19.3 		"/>
		<path class="st0" d="M46.4,25.8v-1.2c2.2-0.1,4.3-0.8,6.3-1.8l3,5.2l1.2-0.7l-3-5.2c0.6-0.5,1.2-1,1.8-1.5l-1-1
			c-0.5,0.5-1,0.9-1.5,1.3l-5.2-9c0.7-0.6,1.1-1.4,1.1-2.4c0-1.6-1.1-2.9-2.6-3.2V3h-1.4v3.2c-1.5,0.3-2.6,1.7-2.6,3.2
			c0,1,0.4,1.8,1.1,2.4l-5.2,9c-0.6-0.4-1-0.8-1.5-1.3l-1,1c0.6,0.6,1.2,1,1.8,1.5l-3,5.2l1.2,0.7l3-5.2c1.9,1.1,4,1.7,6.3,1.8v1.2
			H46.4z M45.8,7.5c1,0,1.9,0.8,1.9,1.9s-0.8,1.9-1.9,1.9s-1.9-0.8-1.9-1.9S44.7,7.5,45.8,7.5z M39.5,21.6l5.2-9.1
			c0.3,0.1,0.7,0.2,1,0.2s0.7-0.1,1-0.2l5.2,9.1c-1.7,1-3.6,1.5-5.6,1.7v-1.2h-1.4v1.2C43.1,23.1,41.2,22.6,39.5,21.6z"/>
		<polygon class="st0" points="199.4,22.2 206.2,22.2 206.2,15.5 		"/>
		<path class="st0" d="M8.1,27.6l5.2-5.2l-5.2-5.2l-5.2,5.2L8.1,27.6z M12.2,22.5l-4.1,4.1l-4.2-4.1l4.2-4.2L12.2,22.5z"/>
		<path class="st0" d="M13.2,8.5L8.1,3.4L2.9,8.5l5.2,5.2L13.2,8.5z M8.1,4.3l4.2,4.2l-4.2,4.2L3.9,8.5L8.1,4.3z"/>
		<polygon class="st0" points="206.2,22.2 202.8,25.6 209.5,25.6 209.5,18.9 		"/>
		<polygon class="st0" points="192.7,22.2 199.4,22.2 192.7,15.5 		"/>
		<polygon class="st0" points="192.7,8.8 192.7,15.5 199.4,8.8 		"/>
		<polygon class="st0" points="206.2,8.8 199.4,8.8 206.2,15.5 		"/>
		<polygon class="st0" points="196.1,29 202.8,29 199.4,25.6 		"/>
		<polygon class="st0" points="186,2.1 186,8.8 189.4,5.5 192.7,2.1 		"/>
		<polygon class="st0" points="186,18.9 189.4,15.5 186,12.2 		"/>
		<path class="st0" d="M20.2,15.5L15,10.3l-5.2,5.2l5.2,5.2L20.2,15.5z M15,11.3l4.2,4.2L15,19.7l-4.2-4.2L15,11.3z"/>
		<polygon class="st0" points="196.1,5.5 189.4,5.5 189.4,12.2 		"/>
		<polygon class="st0" points="202.8,2.1 196.1,2.1 199.4,5.5 		"/>
		<polygon class="st0" points="212.9,29 212.9,22.2 209.5,25.6 206.2,29 		"/>
		
			<rect x="4.8" y="43.6" transform="matrix(0.7071 -0.7071 0.7071 0.7071 -30.5334 18.8044)" class="st0" width="5.4" height="5.4"/>
		
			<rect x="258.3" y="36" transform="matrix(0.7071 -0.7071 0.7071 0.7071 49.0704 195.8445)" class="st0" width="5.4" height="5.4"/>
		<polygon class="st0" points="255.6,32.7 251.1,32.7 253.4,34.9 		"/>
		<polygon class="st0" points="247.3,36.5 247.3,40.9 249.6,38.7 		"/>
		<polygon class="st0" points="274.5,44.1 272.3,46.3 274.5,48.5 		"/>
		<polygon class="st0" points="247.3,44.1 247.3,48.5 249.6,46.3 		"/>
		<polygon class="st0" points="258.7,32.7 260.9,34.9 263.1,32.7 		"/>
		
			<rect x="258.3" y="51.2" transform="matrix(0.7071 -0.7071 0.7071 0.7071 38.3655 200.2786)" class="st0" width="5.4" height="5.4"/>
		<polygon class="st0" points="263.1,59.9 260.9,57.6 258.7,59.9 		"/>
		
			<rect x="265.8" y="43.6" transform="matrix(0.7071 -0.7071 0.7071 0.7071 45.9369 203.4167)" class="st0" width="5.4" height="5.4"/>
		
			<rect x="258.3" y="43.6" transform="matrix(0.7071 -0.7071 0.7071 0.7071 43.7198 198.0642)" class="st0" width="5.4" height="5.4"/>
		
			<rect x="172.2" y="49.8" transform="matrix(0.7071 -0.7071 0.7071 0.7071 13.8747 139.6385)" class="st0" width="6.6" height="6.6"/>
		<path class="st0" d="M209.9,41.6c0-0.4-0.1-0.8-0.2-1.2l-1.7-1c-0.3,1.3-0.9,2.3-2.4,2.3H204v-1.6c0-1.4,1-2,2.3-2.4l-1-1.7
			c-0.3-0.1-0.8-0.2-1.2-0.2c-2.6,0-3.9,1.8-3.9,4.3v5.4h5.4C208.2,45.4,209.9,44.2,209.9,41.6z"/>
		<path class="st0" d="M204.1,56.7c0.4,0,0.8-0.1,1.2-0.2l1-1.7c-1.3-0.3-2.3-0.9-2.3-2.4v-1.6h1.5c1.4,0,2,1,2.4,2.3l1.7-1
			c0.1-0.3,0.2-0.8,0.2-1.2c0-2.6-1.8-3.9-4.3-3.9h-5.4v5.4C200.2,54.9,201.5,56.7,204.1,56.7z"/>
		<path class="st0" d="M189,50.9c0,0.4,0.1,0.8,0.2,1.2l1.7,1c0.3-1.3,0.9-2.3,2.4-2.3h1.5v1.5c0,1.4-1,2-2.3,2.4l1,1.7
			c0.3,0.1,0.8,0.2,1.2,0.2c2.6,0,3.9-1.8,3.9-4.3v-5.4h-5.4C190.8,47.1,189,48.3,189,50.9z"/>
		<path class="st0" d="M193.2,45.4h5.4v-5.4c0-2.5-1.2-4.3-3.9-4.3c-0.4,0-0.8,0.1-1.2,0.2l-1,1.7c1.3,0.3,2.3,0.9,2.3,2.4v1.5h-1.6
			c-1.4,0-2-1-2.4-2.3l-1.7,1c-0.1,0.3-0.2,0.8-0.2,1.2C189,44.2,190.8,45.4,193.2,45.4z"/>
		
			<rect x="250.7" y="43.6" transform="matrix(0.7071 -0.7071 0.7071 0.7071 41.5026 192.7117)" class="st0" width="5.4" height="5.4"/>
		<polygon class="st0" points="274.5,56.1 274.5,51.6 272.3,53.8 		"/>
		<polygon class="st0" points="274.5,36.5 272.3,38.7 274.5,40.9 		"/>
		<polygon class="st0" points="251.1,59.9 255.6,59.9 253.4,57.6 		"/>
		<polygon class="st0" points="270.7,32.7 266.3,32.7 268.5,34.9 		"/>
		<polygon class="st0" points="266.3,59.9 270.7,59.9 268.5,57.6 		"/>
		<polygon class="st0" points="1.4,48.5 3.6,46.3 1.4,44.1 		"/>
		<polygon class="st0" points="24.8,32.7 20.4,32.7 22.6,34.9 		"/>
		<polygon class="st0" points="28.6,36.5 26.4,38.7 28.6,40.9 		"/>
		<polygon class="st0" points="1.4,36.5 1.4,40.9 3.6,38.7 		"/>
		<polygon class="st0" points="9.7,32.7 5.2,32.7 7.4,34.9 		"/>
		<polygon class="st0" points="28.6,56.1 28.6,51.6 26.4,53.8 		"/>
		<polygon class="st0" points="5.2,59.9 9.7,59.9 7.4,57.6 		"/>
		<polygon class="st0" points="247.3,51.6 247.3,56.1 249.6,53.8 		"/>
		<polygon class="st0" points="20.4,59.9 24.8,59.9 22.6,57.6 		"/>
		<polygon class="st0" points="1.4,56.1 3.6,53.8 1.4,51.6 		"/>
		<polygon class="st0" points="15,34.9 11.2,38.7 15,42.5 18.9,38.7 		"/>
		<polygon class="st0" points="12.8,32.7 15,34.9 17.3,32.7 		"/>
		<path class="st0" d="M306.6,0.5l-4.7,4.7h0.1h4.7v0.3l-4.7,4.7h4.7v0.3l-4.7,4.7h4.7v0.3l-4.7,4.7h4.7v0.3l-4.7,4.7h4.7V26
			l-4.4,4.4H302v-4.6h-0.1l-4.6,4.6h-0.3v-4.6h-0.1h-0.1l-4.6,4.6h-0.3v-4.6h-0.1h-0.1l-4.6,4.6h-0.3v-4.6h-0.1l-4.6,4.6h-0.5v-4.7
			l-4.7,4.7v-4.7h4.7v-5.1l-4.7,4.7v-4.7h4.7v-5.1l-4.7,4.7v-4.7h4.7v-5.1l-4.7,4.7v-4.7h4.7V5.2l-4.7,4.7V5.2h4.7V0.5H281l-4.4,4.4
			V0.5h-0.7v30.1h-30.1V0.5h-0.6v30.1h-30.1V0.5h-0.7v30.1h-30.1V0.5h-0.7v30.1h-30.1V0.5H153v30.1h-30.1V0.5h-0.6v30.1H92.2V0.5
			h-0.7v30.1H61.5V0.5h-0.7v30.1H30.7V0.5H30v30.1H0v0.7h30v30.1H0V62h30h0.7h30.1h0.7h30.1h0.7h30.1h0.7H153h0.7h30h0.7h30.1h0.7
			h30.1h0.7h30h0.7h30.8V31.3v-0.7V0.5H306.6z M60.8,61.3H30.7v-30h30.1V61.3z M91.5,61.3H61.5v-30h30.1V61.3z M122.3,61.3H92.2v-30
			h30.1V61.3z M153,61.3h-30.1v-30H153V61.3z M183.7,56.8l-1.2-1.2l-4.7,4.7l1.2,1.2h-7.2l1.2-1.2l-4.7-4.7l-4.7,4.7l1.2,1.2h-6.7
			l1-1l-4.7-4.7l-1.1,1.1V50l1.1,1.1l4.7-4.7l-4.7-4.7l-1.1,1.1v-6.9l1.1,1.1l4.7-4.7l-1.1-1.1h6.9l-1.1,1.1l4.7,4.7l4.7-4.7
			l-1.1-1.1h6.9l-1.1,1.1l4.7,4.7l1-1v6.6l-1.2-1.2l-4.7,4.7l4.7,4.7l1.2-1.2V56.8z M214.5,61.3h-30.1v-30h30.1V61.3z M231.3,31.3
			l-1.1,1.1l-1.1-1.1H231.3z M226.7,31.2l3.4,3.4l3.4-3.4h4.1l-7.5,7.5l-7.5-7.5H226.7z M220.3,31.3l9.9,9.8l9.8-9.8h4.1l-13.9,13.9
			l-13.9-13.9H220.3z M215.2,45.2l1.1,1.1l-1.1,1.1V45.2z M215.2,49.7l3.4-3.4l-3.4-3.4v-4.1l7.5,7.5l-7.5,7.5V49.7z M215.2,56.1
			l9.8-9.8l-9.8-9.8v-4.1l13.9,13.9l-13.9,13.9V56.1z M229.1,61.3l1.1-1.1l1.1,1.1H229.1z M233.6,61.3l-3.4-3.4l-3.4,3.4h-4.1
			l7.5-7.5l7.5,7.5H233.6z M240,61.3l-9.8-9.8l-9.8,9.8h-4.1l13.9-13.9l13.9,13.9H240z M245.3,47.4l-1.1-1.1l1.1-1.1V47.4z
			 M245.3,42.8l-3.4,3.4l3.4,3.4v4.1l-7.5-7.5l7.5-7.5V42.8z M245.3,36.5l-9.8,9.8l9.8,9.8v4.1l-13.9-13.9l13.9-13.9V36.5z
			 M275.9,61.3h-30.1v-30h30.1V61.3z M306.7,61.3h-30.1v-30h30.1V61.3z"/>
		<path class="st0" d="M289.8,48.1v6.1l-5.4,1.9H299l-5.4-1.9v-6.1h6.1l1.9,5.4V38.9l-1.9,5.4h-6.1v-6.1l5.4-1.9h-14.7l5.4,1.9v6.1
			h-6.1l-1.9-5.4v14.7l1.9-5.4H289.8z M283.6,45.8h7.7v-7.6h0.8v7.6h7.6v0.8h-7.6v7.6h-0.8v-7.6h-7.7V45.8z"/>
		<polygon class="st0" points="18.9,46.3 15,42.5 11.2,46.3 15,50 		"/>
		<polygon class="st0" points="15,57.6 18.9,53.8 15,50 11.2,53.8 		"/>
		<polygon class="st0" points="17.3,59.9 15,57.6 12.8,59.9 		"/>
		<rect x="20" y="43.6" transform="matrix(0.7071 -0.7071 0.7071 0.7071 -26.0788 29.5574)" class="st0" width="5.4" height="5.4"/>
		<polygon class="st0" points="28.6,44.1 26.4,46.3 28.6,48.5 		"/>
		
			<rect x="73.2" y="42.9" transform="matrix(0.7071 -0.7071 0.7071 0.7071 -10.2863 67.6391)" class="st0" width="6.6" height="6.6"/>
		<polygon class="st0" points="296.8,20.7 291.8,25.7 291.8,25.8 296.7,25.8 296.8,25.7 		"/>
		<polygon class="st0" points="296.9,25.6 296.8,25.7 296.8,25.8 296.9,25.7 		"/>
		<polygon class="st0" points="291.8,25.6 291.7,25.7 291.7,25.8 291.8,25.7 		"/>
		<polygon class="st0" points="296.7,5.2 296.7,0.5 296.4,0.5 291.6,5.2 291.7,5.2 		"/>
		<polygon class="st0" points="296.9,25.7 296.9,25.8 301.8,25.8 302,25.6 302,20.7 		"/>
		<polygon class="st0" points="302,10.4 302,10.3 302,5.2 296.8,10.4 		"/>
		<polygon class="st0" points="296.8,20.7 302,20.7 302,20.5 302,15.5 		"/>
		<polygon class="st0" points="286.5,25.8 286.5,25.8 286.5,25.7 		"/>
		<polygon class="st0" points="301.8,5.2 301.8,0.5 301.5,0.5 296.7,5.2 296.8,5.2 		"/>
		<polygon class="st0" points="296.8,15.5 302,15.5 302,15.4 302,10.4 		"/>
		<polygon class="st0" points="291.7,20.7 286.7,25.6 286.7,25.8 291.6,25.8 291.7,25.7 		"/>
		<polygon class="st0" points="286.5,20.7 291.7,20.7 291.7,15.5 		"/>
		<polygon class="st0" points="296.8,20.7 296.8,15.5 291.7,20.7 		"/>
		<polygon class="st0" points="286.5,25.7 286.7,25.6 286.7,25.6 		"/>
		<polygon class="st0" points="296.8,5.2 291.7,10.4 296.8,10.4 		"/>
		<polygon class="st0" points="296.8,15.5 296.8,10.4 291.7,15.5 		"/>
		<polygon class="st0" points="286.5,20.7 286.5,20.5 281.4,25.6 286.5,25.6 		"/>
		<polygon class="st0" points="286.5,10.4 286.5,10.3 281.4,15.4 286.5,15.4 		"/>
		<polygon class="st0" points="286.5,15.5 286.5,15.4 281.4,20.5 286.5,20.5 		"/>
		<polygon class="st0" points="291.7,15.5 291.7,10.4 286.5,15.5 		"/>
		<path class="st0" d="M107.2,57.4c5.1,0,9.2-4.1,9.2-9.2V35.1H97.9v13.1C98,53.3,102.1,57.4,107.2,57.4z M99.4,36.5h15.7v11.7
			c0,4.3-3.5,7.8-7.8,7.8c-4.3,0-7.8-3.5-7.8-7.8V36.5z"/>
		<ellipse transform="matrix(0.7071 -0.7071 0.7071 0.7071 -5.1698 87.7448)" class="st0" cx="103.3" cy="50.1" rx="1.9" ry="1.9"/>
		
			<rect x="165.4" y="43" transform="matrix(0.7071 -0.7071 0.7071 0.7071 16.6732 132.8943)" class="st0" width="6.6" height="6.6"/>
		<ellipse transform="matrix(0.7071 -0.7071 0.7071 0.7071 -1.3163 89.3598)" class="st0" cx="107.2" cy="46.3" rx="1.9" ry="1.9"/>
		<ellipse transform="matrix(0.7071 -0.7071 0.7071 0.7071 0.2977 85.5074)" class="st0" cx="103.4" cy="42.4" rx="1.9" ry="1.9"/>
		<path class="st0" d="M145.7,54.7c-0.3,0.3-0.7,0.4-1.1,0.4c-0.4,0-0.8-0.1-1.1-0.4c-0.3-0.3-0.8-0.3-1.1,0
			c-0.3,0.3-0.7,0.4-1.1,0.4s-0.8-0.1-1.1-0.4c-0.3-0.3-0.8-0.3-1.1,0c-0.3,0.3-0.7,0.4-1.1,0.4s-0.8-0.1-1.1-0.4
			c-0.3-0.3-0.8-0.3-1.1,0c-0.3,0.3-0.7,0.4-1.1,0.4s-0.8-0.1-1.1-0.4c-0.3-0.3-0.8-0.3-1.1,0c-0.3,0.3-0.7,0.4-1.1,0.4
			c-0.4,0-0.8-0.1-1.1-0.4c-0.3-0.2-0.6-0.3-0.9-0.1v0.5c0.3-0.1,0.6-0.1,0.9,0.1c0.3,0.3,0.7,0.4,1.1,0.4c0.4,0,0.8-0.1,1.1-0.4
			c0.3-0.3,0.8-0.3,1.1,0c0.3,0.3,0.7,0.4,1.1,0.4s0.8-0.1,1.1-0.4c0.3-0.3,0.8-0.3,1.1,0c0.3,0.3,0.7,0.4,1.1,0.4s0.8-0.1,1.1-0.4
			c0.3-0.3,0.8-0.3,1.1,0c0.3,0.3,0.7,0.4,1.1,0.4s0.8-0.1,1.1-0.4c0.3-0.3,0.8-0.3,1.1,0c0.3,0.3,0.7,0.4,1.1,0.4
			c0.4,0,0.8-0.1,1.1-0.4c0.3-0.3,0.8-0.3,1.1,0c0.3,0.3,0.7,0.4,1.1,0.4v-0.5c-0.4,0-0.8-0.1-1.1-0.4
			C146.5,54.4,146,54.4,145.7,54.7z"/>
		
			<rect x="158.5" y="36" transform="matrix(0.7071 -0.7071 0.7071 0.7071 19.5929 125.8979)" class="st0" width="6.6" height="6.6"/>
		<rect x="158.5" y="50" transform="matrix(0.7071 -0.7071 0.7071 0.7071 9.723 129.9912)" class="st0" width="6.6" height="6.6"/>
		<path class="st0" d="M131.4,50.5l-1.6-0.1l0.3,1.6l0.4,0.1c0.3,0.1,0.6,0.5,0.6,0.8l0.1,0.8h-0.5v0.6c0.3,0.2,0.6,0.3,0.9,0.3
			c0.4,0,0.8-0.1,1.1-0.4c0.3-0.3,0.8-0.3,1.1,0c0.3,0.3,0.7,0.4,1.1,0.4c0.4,0,0.8-0.1,1.1-0.4c0.3-0.3,0.8-0.3,1.1,0
			c0.3,0.3,0.7,0.4,1.1,0.4s0.8-0.1,1.1-0.4c0.3-0.3,0.8-0.3,1.1,0c0.3,0.3,0.7,0.4,1.1,0.4s0.8-0.1,1.1-0.4c0.3-0.3,0.8-0.3,1.1,0
			c0.3,0.3,0.7,0.4,1.1,0.4s0.8-0.1,1.1-0.4c0.2-0.2,0.4-0.2,0.7-0.2c0.6-0.6,1-1.4,1.2-2.3l0.3-1.9h-0.5l-0.6,1.2
			c0,0-3.1,0.8-6.8,1.2v-2.8h6.8c-1.7-3-4.5-6.2-7.2-8V37h-0.4v0.3h-2.1L138,38l-0.6,0.7h2.1v2.5c-3.7-2.4-7.2-4.1-7.2-4.1v6.2
			c-0.9-0.7-4.4-3.2-4.4-3.2v9.5h3.4V50.5z M131.8,49.4L131.8,49.4h0.7h5.8h1.4v2.8c-0.1,0-0.1,0-0.2,0c0,0-4.1,0.6-4.6-1.6l-3-0.2
			V49.4z"/>
		
			<rect x="172.4" y="36" transform="matrix(0.7071 -0.7071 0.7071 0.7071 23.6882 135.7717)" class="st0" width="6.6" height="6.6"/>
		<path class="st0" d="M45.8,57.8c6.5,0,11.8-5.3,11.8-11.8c0-6.5-5.3-11.8-11.8-11.8S34,39.6,34,46.1C34,52.5,39.2,57.8,45.8,57.8z
			 M45.8,35.7c5.7,0,10.4,4.7,10.4,10.4s-4.7,10.4-10.4,10.4s-10.4-4.7-10.4-10.4S40,35.7,45.8,35.7z"/>
		
			<rect x="79.9" y="49.7" transform="matrix(0.7071 -0.7071 0.7071 0.7071 -13.0825 74.3828)" class="st0" width="6.6" height="6.6"/>
		<polygon class="st0" points="286.5,10.3 286.5,5.2 281.4,10.3 		"/>
		<rect x="66.2" y="50" transform="matrix(0.7071 -0.7071 0.7071 0.7071 -17.3032 64.7629)" class="st0" width="6.6" height="6.6"/>
		<ellipse transform="matrix(0.7071 -0.7071 0.7071 0.7071 -2.8827 93.2334)" class="st0" cx="111.1" cy="50.1" rx="1.9" ry="1.9"/>
		<polygon class="st0" points="51.3,40.8 44,44.2 40.2,52 47.9,48 		"/>
		<rect x="66.2" y="36" transform="matrix(0.7071 -0.7071 0.7071 0.7071 -7.43 60.6667)" class="st0" width="6.6" height="6.6"/>
		<rect x="80.2" y="36" transform="matrix(0.7071 -0.7071 0.7071 0.7071 -3.3359 70.5434)" class="st0" width="6.6" height="6.6"/>
		<ellipse transform="matrix(0.7071 -0.7071 0.7071 0.7071 2.5857 90.998)" class="st0" cx="111.1" cy="42.4" rx="1.9" ry="1.9"/>
		<polygon class="st0" points="291.7,5.2 286.5,10.4 291.7,10.4 		"/>
	</g>
	<path class="st1" d="M296.8,87.2L296.8,87.2l-5,0.1v-0.1l5-5V87.2z M286.5,82.2V82l-5.1,5.1h5.1V82.2z M122.9,62h-0.6v30.1h0.6V62z
		 M291.8,87.1L291.8,87.1l-0.1,0.1L291.8,87.1L291.8,87.1z M286.5,87.3L286.5,87.3L286.5,87.3L286.5,87.3z M291.7,82.2l-5,5v0.1h5
		l0.1-0.1V82.2z M126.5,77.1l6.5-2l-3.2-6.1l6.1,3.2l2-6.5l2,6.5L146,69l-3.2,6.1l6.5,2l-6.5,2l3.2,6.1l-6.1-3.2l-2,6.5l-2-6.5
		l-6.1,3.2l3.2-6.1L126.5,77.1z M133.6,75.3l-5.8,1.8l5.8,1.8l-2.8,5.4l5.4-2.9l1.8,5.8l1.8-5.8l5.4,2.9l-2.8-5.4l5.8-1.8l-5.8-1.8
		l2.8-5.4l-5.4,2.9l-1.8-5.8l-1.8,5.8l-5.4-2.9L133.6,75.3z M296.9,87.1L296.9,87.1l-0.1,0.1L296.9,87.1L296.9,87.1z M302,71.9
		L302,71.9v-5.2l-5.2,5.2H302z M296.8,82.2h5.2V82v-5L296.8,82.2z M144.2,83.2l-6.3-6.1l1.5,3.7L144.2,83.2z M146.8,77.1H138
		l3.7,1.5L146.8,77.1z M99.2,78.9l-1.9,5.4V69.7l1.9,5.4h6.1V69l-5.4-1.9h14.7l-5.4,1.9v6.1h6.1l1.9-5.4v14.7l-1.9-5.4h-6.1v6.1
		l5.4,1.9H99.9l5.4-1.9v-6.1H99.2z M99.2,77.4h7.7v7.7h0.8v-7.6h7.6v-0.8h-7.6V69h-0.8v7.6h-7.7V77.4z M131.6,83.4l6.3-6.3l-3.8,1.6
		L131.6,83.4z M138,86v-8.9l-1.6,3.7L138,86z M129.1,77.1h8.9l-3.7-1.6L129.1,77.1z M296.9,87.2L296.9,87.2l5,0.1l0.1-0.1v-5
		L296.9,87.2z M296.8,77h5.2v-0.1v-5L296.8,77z M291.7,66.8l-5.2,5.2h5.2V66.8z M9.8,77l5.2-5.2l5.2,5.2L15,82.2L9.8,77z M15,72.8
		L10.8,77l4.2,4.2l4.2-4.2L15,72.8z M34.7,88.8l3-5.2c-0.6-0.5-1.2-1-1.8-1.5l1-1c0.5,0.5,1,0.9,1.5,1.3l5.2-9
		c-0.7-0.6-1.1-1.4-1.1-2.4c0-1.6,1.1-2.9,2.6-3.2v-3.2h1.4v3.2c1.5,0.3,2.6,1.7,2.6,3.2c0,1-0.4,1.8-1.1,2.4l5.2,9
		c0.6-0.4,1-0.8,1.5-1.3l1,1c-0.6,0.6-1.2,1-1.8,1.5l3,5.2l-1.2,0.7l-3-5.2c-1.9,1-4.1,1.7-6.3,1.8v1.2h-1.4v-1.2
		c-2.3-0.1-4.3-0.7-6.3-1.8l-3,5.2L34.7,88.8z M43.8,71c0,1.1,0.8,1.9,1.9,1.9s1.9-0.8,1.9-1.9S46.8,69,45.8,69
		C44.7,69,43.8,69.9,43.8,71z M39.5,83.1c1.7,1,3.6,1.5,5.6,1.7v-1.2h1.4v1.2c2-0.1,3.9-0.7,5.6-1.7L46.8,74c-0.3,0.1-0.7,0.2-1,0.2
		s-0.7-0.1-1-0.2L39.5,83.1z M296.8,66.8l-5.1,5.2h5.1V66.8z M30.7,62H30v30.1h0.7V62z M22,75.2l-5.2-5.2l5.2-5.2l5.2,5.2L22,75.2z
		 M17.8,70.1l4.2,4.2l4.2-4.2L22,65.9L17.8,70.1z M291.6,62h-0.4l-4.7,4.7h5.1V62z M8.1,75.2l-5.2-5.2l5.2-5.2l5.2,5.2L8.1,75.2z
		 M3.9,70l4.2,4.2l4.2-4.2l-4.2-4.2L3.9,70z M286.5,62h-0.4l-4.7,4.7h5.1V62z M8.1,89.1L2.9,84l5.2-5.2l5.2,5.2L8.1,89.1z M3.9,84
		l4.2,4.1l4.1-4.1l-4.1-4.2L3.9,84z M286.5,77L286.5,77l-5.1,5h5.1V77z M291.7,77v-5.1l-5.2,5.1H291.7z M70.3,76.9
		c-1.2-1.5-2.1-3.4-2.1-5.6v-3.5h3.4v3.4h3.4v-3.4h3.4v3.4h3.4v-3.4h3.4v3.6c0,2.1-0.8,4.1-2.1,5.6l1.5,6.7H68.6L70.3,76.9z
		 M74.8,79.8h3.4v-5.1h-3.4V79.8z M296.8,77v-5.1l-5.1,5.1H296.8z M286.5,71.9L286.5,71.9l-5.1,5h5.1V71.9z M296.8,82.2V77l-5.1,5.2
		H296.8z M92.2,62h-0.7v30.1h0.7V62z M286.5,87.3l0.1-0.1v0L286.5,87.3z M61.5,62h-0.7v30.1h0.7V62z M286.5,82.2h5.2V77L286.5,82.2z
		 M84.7,84.9H68.3L68,86.2h17L84.7,84.9z M202.8,63.6h-6.7l3.3,3.4L202.8,63.6z M226.2,75.2l-2.1-1.9l-4.9-1.1l4.2,3H226.2z
		 M229,75.7l-0.4-1.9l-8.1-6.7l6.7,8.1L229,75.7z M228.7,72.9l-0.2-2.3l-3.4-4.8l1.8,5.6L228.7,72.9z M228.4,76.9l-1.7-1.1l-9.2,1
		l9.2,1L228.4,76.9z M212.9,70.3v-6.7h-6.7l3.4,3.4L212.9,70.3z M215.2,62h-0.7v30.1h0.7V62z M240,67.1l-8.1,6.7l-0.4,1.9l1.9-0.4
		L240,67.1z M209.5,73.7V67h-6.7L209.5,73.7z M235.5,65.7l-3.4,4.8l-0.2,2.3l1.9-1.6L235.5,65.7z M231.3,73.4l-1-9.2l-1,9.2l1,1.7
		L231.3,73.4z M220.7,86.7l8.1-6.7l0.4-1.9l-1.9,0.4L220.7,86.7z M226.4,78.6h-2.7l-4.3,3l4.9-1.1L226.4,78.6z M196.1,67h-6.7v6.7
		L196.1,67z M209.5,87.1v-6.7l-3.4,3.4l-3.4,3.4H209.5z M206.2,83.8V77l-6.7,6.7H206.2z M192.7,77v6.7h6.7L192.7,77z M189.4,87.1
		h6.7l-3.4-3.4l-3.4-3.4L189.4,87.1l-3.4-3.4v6.7h6.7L189.4,87.1z M212.9,90.5v-6.7l-3.4,3.4l-3.4,3.4H212.9z M192.7,63.6H186v6.7
		l3.4-3.4L192.7,63.6z M234.6,75.3h2.7l4.2-3l-4.8,1.1L234.6,75.3z M184.4,62h-0.7v30.1h0.7V62z M206.2,70.3h-6.7l6.7,6.7V70.3z
		 M192.7,70.3V77l6.7-6.7H192.7z M186,73.7v6.7l3.4-3.4L186,73.7z M231.1,76.9l-0.9-0.9l-0.9,0.9l0.9,0.9L231.1,76.9z M212.9,80.4
		v-6.7l-3.4,3.3L212.9,80.4z M153.7,62H153v30.1h0.7V62z M307.4,62h-0.8l-4.7,4.7h0.1h4.7v0.3l-4.7,4.7h4.7v0.3l-4.7,4.7h4.7v0.3
		L302,82h4.7v0.3l-4.7,4.7h4.7v0.3l-4.4,4.4H302v-4.6h-0.1l-4.6,4.6h-0.3v-4.6h-0.1h-0.1l-4.6,4.6h-0.3v-4.6h-0.1h-0.1l-4.6,4.6
		h-0.3v-4.6h-0.1l-4.6,4.6h-0.5v-4.7l-4.7,4.7v-4.7h4.7V82l-4.7,4.7V82h4.7v-5.1l-4.7,4.7v-4.7h4.7v-5.1l-4.7,4.7v-4.7h4.7v-5.1
		l-4.7,4.7v-4.7h4.7V62H281l-4.4,4.4V62h-0.7v30.1h31.4V62z M26.9,83.8l-5.2,5.2l-5.2-5.2l5.2-5.2L26.9,83.8z M21.7,87.9l4.2-4.2
		l-4.2-4.2l-4.2,4.2L21.7,87.9z M232,76.9l1.7,1l9.2-1l-9.2-1L232,76.9z M159.4,78.5c0-5.3,4.1-7.8,4.9-8.2c0.9-0.5,1.6-0.8,2.6-1.6
		c0.6-0.4,1-1,1.1-2.4c0.8,0.9,1.7,1.9,2.3,2.3c1,0.7,2.1,1,3.2,1.7c0.6,0.4,4.7,2.9,4.7,8.3c0,5.5-4.3,9.1-9.3,9.1
		S159.4,83.8,159.4,78.5z M173.5,85.5c0-0.1-0.1-0.2-0.3-0.1c-0.4,0.3-1.4,0.7-2.7,0.7s-1.9-0.3-2.3-0.6c-0.1-0.1-0.1-0.1-0.1-0.1
		c-0.1,0-0.2,0.1-0.3,0.1c-0.1,0.1-0.1,0.3,0,0.4c0.9,0.8,2.4,0.8,3.5,0.7c1.1-0.1,2.1-0.8,2.1-0.9
		C173.6,85.7,173.6,85.5,173.5,85.5z M169.8,84.4c0.1,0.2,0.3,0.1,0.6-0.2c0.3-0.3,0.6-0.6,1.3-0.6s0.8,0.3,1,0.6
		c0.1,0.3,0.1,0.3,0.3,0.2s0.2-0.2,0.1-0.4c-0.1-0.2-0.2-0.6-0.5-0.8c-0.2-0.2-0.6-0.2-0.9-0.2s-0.6,0-0.9,0.1s-0.8,0.5-1,0.7
		C169.6,84.1,169.6,84.3,169.8,84.4z M166.9,78.5c-1.9,0.1-3.4,1.6-3.4,3.2c0,0.9,0.3,1.6,0.9,2c0.4,0.3,0.8,0.5,2,0.5
		c2.1,0,4.7-2.5,5.8-2.5c1,0.1,2.4,2.3,3.2,2.4c0.6,0,0.9-0.3,1.4-1c0.5-0.8,0.7-1.9,0.7-2.5s-0.3-1.7-1.3-1.7c-1,0-3,2.1-4,2.1
		C170.9,81,169.2,78.5,166.9,78.5z M163.8,73.1c1.5-0.9,2.2-1.4,3-2.3c0.4-0.5,0.5-0.8,0.5-0.9c0-0.2-0.1-0.2-0.3-0.3
		c-0.1-0.1-0.1-0.1,0-0.1c0.1-0.1,0.6-0.3,0.6-0.3c0.1-0.1,0.6-0.4,0.6-1c0.1-0.6,0-0.9-0.1-1.4c-0.2,1.4-0.6,1.8-1.2,2.2
		c-1,0.7-1.9,1.2-2.1,1.2c-0.6,0.3-2.5,1.4-3.5,2.9c-0.3,0.5,0,0.6,0.1,0.7C161.5,73.8,162.2,73.9,163.8,73.1z M286.5,71.8v-5.1
		l-5.1,5.1H286.5z M131.7,70.9l6.3,6.2l-1.5-3.7L131.7,70.9z M301.8,66.8V62h-0.4l-4.7,4.7h0.1H301.8z M138,68.1V77l1.5-3.8
		L138,68.1z M296.7,66.8V62h-0.4l-4.7,4.7h0.1H296.7z M196.1,90.5h6.7l-3.4-3.4L196.1,90.5z M273.1,77.1h-12.1l12.1,9.5V77.1z
		 M226.9,82.5l-1.8,5.6l3.4-4.7l0.2-2.3L226.9,82.5z M248.8,77.1h12.1l-12.1-9.6V77.1z M245.9,62h-0.6v30.1h0.6V62z M260.9,86.6
		v-9.5l-12.1,9.5H260.9z M260.9,67.5v9.6l12.1-9.6H260.9z M230.2,89.9l1-9.2l-1-1.7l-1,1.7L230.2,89.9z M144.2,70.7l-6.3,6.3
		l3.7-1.6L144.2,70.7z M231.2,77.9l0.4,1.9l8.1,6.6l-6.7-8.1L231.2,77.9z M237.1,78.5h-2.7l2.1,1.9l4.9,1.1L237.1,78.5z M232.1,83.3
		l3.4,4.7l-1.8-5.6l-1.9-1.5L232.1,83.3z"/>
</g>
</svg>
