<?xml version="1.0" encoding="utf-8"?>
<!-- Generator: Adobe Illustrator 21.0.0, SVG Export Plug-In . SVG Version: 6.00 Build 0)  -->
<svg version="1.1" id="Layer_1" xmlns="http://www.w3.org/2000/svg" xmlns:xlink="http://www.w3.org/1999/xlink" x="0px" y="0px"
	 viewBox="0 0 260 260" style="enable-background:new 0 0 260 260;" xml:space="preserve">
<style type="text/css">
	.st0{fill:#5776B7;}
</style>
<g>
	<g>
		<g>
			<polygon class="st0" points="168.8,218.6 146.1,218.6 130,202.6 113.9,218.6 91.2,218.6 91.2,241.4 75.2,257.4 83.8,257.4 
				95.6,245.7 97.4,243.9 97.4,241.4 97.4,224.8 116.5,224.8 118.3,223 130,211.3 141.7,223 143.5,224.8 162.6,224.8 162.6,241.4 
				162.6,243.9 164.4,245.7 176.2,257.4 184.8,257.4 168.8,241.4 			"/>
			<polygon class="st0" points="91.2,41.4 113.9,41.4 130,57.4 146.1,41.4 168.8,41.4 168.8,18.6 184.8,2.6 176.2,2.6 164.4,14.3 
				162.6,16.1 162.6,18.6 162.6,35.2 143.5,35.2 141.7,37 130,48.7 118.3,37 116.5,35.2 97.4,35.2 97.4,18.6 97.4,16.1 95.6,14.3 
				83.8,2.6 75.2,2.6 91.2,18.6 			"/>
		</g>
		<g>
			<path class="st0" d="M63.1,14.5l-10.5,1.3c0,0.1,0,0.2,0.1,0.3c0.3,2.6-1.3,5-3.8,5.7L69.3,74l1.1-0.1L63.1,14.5z"/>
			<path class="st0" d="M32.1,18.4c0,0.1,0.1,0.2,0.1,0.3c1.1,2.9-0.3,6.2-3.2,7.3c-2.9,1.1-6.2-0.3-7.3-3.2c0-0.1-0.1-0.2-0.1-0.3
				L11,26.7l23.5,59.9l10.6-4.1c-1.1-2.9,0.3-6.2,3.2-7.3c2.9-1.1,6.2,0.3,7.3,3.2l10.6-4.1L42.7,14.3L32.1,18.4z M21.5,42.5
				l-1.1-2.8l6.8-2.7l1.1,2.8L21.5,42.5z M29.1,36.3l6.8-2.7l1.1,2.8l-6.8,2.7L29.1,36.3z M49,60.8c-0.9,2.1-2.6,3.6-4.6,4.4
				c-2,0.8-4.2,0.8-6.3-0.1c-3.9-1.7-5.9-6.1-4.6-10.1c1.2-3.9,2.9-6.1,2.9-10.3c2.8,3.1,5.7,3.5,9.1,5.6
				C49.1,52.3,50.7,56.9,49,60.8z M45.7,33l-6.8,2.7l-1.1-2.8l6.8-2.7L45.7,33z"/>
		</g>
		<g>
			<path class="st0" d="M207.3,16.1c0-0.1,0-0.2,0.1-0.3l-10.5-1.3l-7.4,59.4l1.1,0.1l20.5-52.2C208.7,21.1,207,18.7,207.3,16.1z"/>
			<path class="st0" d="M238.4,22.6c0,0.1-0.1,0.2-0.1,0.3c-1.1,2.9-4.4,4.3-7.3,3.2c-2.9-1.1-4.3-4.4-3.2-7.3
				c0-0.1,0.1-0.2,0.1-0.3l-10.6-4.2l-23.5,59.9l10.6,4.1c1.1-2.9,4.4-4.3,7.3-3.2c2.9,1.1,4.3,4.4,3.2,7.3l10.6,4.1L249,26.7
				L238.4,22.6z M215.4,30.2l6.8,2.7l-1.1,2.8l-6.8-2.7L215.4,30.2z M222,65.1c-2.1,0.9-4.4,0.9-6.3,0.1c-2-0.8-3.7-2.3-4.6-4.4
				c-1.7-3.9-0.1-8.5,3.5-10.5c3.5-2,6.3-2.5,9.1-5.6c0,4.2,1.7,6.4,2.9,10.3C227.8,59,225.9,63.4,222,65.1z M229.8,39.1l-6.8-2.7
				l1.1-2.8l6.8,2.7L229.8,39.1z M231.7,39.8l1.1-2.8l6.8,2.7l-1.1,2.8L231.7,39.8z"/>
		</g>
		<path class="st0" d="M255.9,4.1v251.7H4.1V4.1H255.9 M260.9-0.9h-6H5.1h-6v6v249.8v6h6h249.8h6v-6V5.1V-0.9L260.9-0.9z"/>
		<g>
			<polygon class="st0" points="153.4,247.7 153.4,234 139.7,234 130,224.3 120.3,234 106.6,234 106.6,247.7 96.9,257.4 
				105.6,257.4 154.4,257.4 163.1,257.4 			"/>
			<polygon class="st0" points="106.6,26 120.3,26 130,35.7 139.7,26 153.4,26 153.4,12.3 163.1,2.6 96.9,2.6 106.6,12.3 			"/>
		</g>
		<g>
			<path class="st0" d="M196.9,245.7l10.5-1.3c0-0.1,0-0.2-0.1-0.3c-0.3-2.6,1.3-5,3.8-5.7l-20.5-52.2l-1.1,0.1L196.9,245.7z"/>
			<path class="st0" d="M227.9,241.7c0-0.1-0.1-0.2-0.1-0.3c-1.1-2.9,0.3-6.2,3.2-7.3c2.9-1.1,6.2,0.3,7.3,3.2
				c0,0.1,0.1,0.2,0.1,0.3l10.6-4.2l-23.5-59.9l-10.6,4.1c1.1,2.9-0.3,6.2-3.2,7.3c-2.9,1.1-6.2-0.3-7.3-3.2l-10.6,4.1l23.5,59.9
				L227.9,241.7z M238.5,217.7l1.1,2.8l-6.8,2.7l-1.1-2.8L238.5,217.7z M230.9,223.9l-6.8,2.7l-1.1-2.8l6.8-2.7L230.9,223.9z
				 M211,199.4c0.9-2.1,2.6-3.6,4.6-4.4c2-0.8,4.2-0.8,6.3,0.1c3.9,1.7,5.9,6.1,4.6,10.1c-1.2,3.9-2.9,6.1-2.9,10.3
				c-2.8-3.1-5.7-3.5-9.1-5.6C210.9,207.8,209.3,203.3,211,199.4z M214.3,227.2l6.8-2.7l1.1,2.8l-6.8,2.7L214.3,227.2z"/>
		</g>
		<g>
			<path class="st0" d="M52.7,244c0,0.1,0,0.2-0.1,0.3l10.5,1.3l7.4-59.4l-1.1-0.1l-20.5,52.2C51.3,239,53,241.4,52.7,244z"/>
			<path class="st0" d="M21.6,237.6c0-0.1,0.1-0.2,0.1-0.3c1.1-2.9,4.4-4.3,7.3-3.2c2.9,1.1,4.3,4.4,3.2,7.3c0,0.1-0.1,0.2-0.1,0.3
				l10.6,4.2L66.2,186l-10.6-4.1c-1.1,2.9-4.4,4.3-7.3,3.2c-2.9-1.1-4.3-4.4-3.2-7.3l-10.6-4.1L11,233.5L21.6,237.6z M44.6,230
				l-6.8-2.7l1.1-2.8l6.8,2.7L44.6,230z M38,195.1c2.1-0.9,4.4-0.9,6.3-0.1c2,0.8,3.7,2.3,4.6,4.4c1.7,3.9,0.1,8.5-3.5,10.5
				c-3.5,2-6.3,2.5-9.1,5.6c0-4.2-1.7-6.4-2.9-10.3C32.2,201.2,34.1,196.8,38,195.1z M30.2,221.1l6.8,2.7l-1.1,2.8l-6.8-2.7
				L30.2,221.1z M28.3,220.4l-1.1,2.8l-6.8-2.7l1.1-2.8L28.3,220.4z"/>
		</g>
	</g>
</g>
</svg>
