<?xml version="1.0" encoding="utf-8"?>
<!-- Generator: Adobe Illustrator 21.0.0, SVG Export Plug-In . SVG Version: 6.00 Build 0)  -->
<svg version="1.1" id="Layer_1" xmlns="http://www.w3.org/2000/svg" xmlns:xlink="http://www.w3.org/1999/xlink" x="0px" y="0px"
	 viewBox="0 0 260 260" style="enable-background:new 0 0 260 260;" xml:space="preserve">
<style type="text/css">
	.st0{fill:#5776B7;}
</style>
<g>
	<g>
		<g>
			<polygon class="st0" points="168.8,218.6 146.1,218.6 130,202.6 113.9,218.6 91.2,218.6 91.2,241.4 75.2,257.4 83.8,257.4 
				95.6,245.7 97.4,243.9 97.4,241.4 97.4,224.8 116.5,224.8 118.3,223 130,211.3 141.7,223 143.5,224.8 162.6,224.8 162.6,241.4 
				162.6,243.9 164.4,245.7 176.2,257.4 184.8,257.4 168.8,241.4 			"/>
			<polygon class="st0" points="91.2,41.4 113.9,41.4 130,57.4 146.1,41.4 168.8,41.4 168.8,18.6 184.8,2.6 176.2,2.6 164.4,14.3 
				162.6,16.1 162.6,18.6 162.6,35.2 143.5,35.2 141.7,37 130,48.7 118.3,37 116.5,35.2 97.4,35.2 97.4,18.6 97.4,16.1 95.6,14.3 
				83.8,2.6 75.2,2.6 91.2,18.6 			"/>
		</g>
		<path class="st0" d="M255.9,4.1v251.7H4.1V4.1H255.9 M260.9-0.9h-6H5.1h-6v6v249.8v6h6h249.8h6v-6V5.1V-0.9L260.9-0.9z"/>
		<g>
			<path class="st0" d="M205.7,18c-1.5,3.9-4,5.4-6.5,8.5c-2.6,3.3-2.4,8,0.6,11.1c1.6,1.6,3.7,2.4,5.9,2.4c2.1,0,4.2-0.8,5.9-2.4
				c3-3,3.2-7.8,0.6-11.1C209.6,23.4,207.1,21.9,205.7,18L205.7,18z"/>
		</g>
		<g>
			<path class="st0" d="M205.7,90.9c1.5-3.9,4-5.4,6.5-8.5c2.6-3.3,2.4-8-0.6-11.1c-1.6-1.6-3.7-2.4-5.9-2.4c-2.1,0-4.2,0.8-5.9,2.4
				c-3,3-3.2,7.8-0.6,11.1C201.7,85.5,204.2,86.9,205.7,90.9L205.7,90.9z"/>
		</g>
		<g>
			<path class="st0" d="M169.2,54.4c3.9,1.5,5.4,4,8.5,6.5c3.3,2.6,8,2.4,11.1-0.6c1.6-1.6,2.4-3.7,2.4-5.9c0-2.1-0.8-4.2-2.4-5.9
				c-3-3-7.8-3.2-11.1-0.6C174.6,50.5,173.2,53,169.2,54.4L169.2,54.4z"/>
		</g>
		<path class="st0" d="M214.6,64c-6.2-3.4-12.4-3.4-18.7,0c3.4-6.2,3.4-12.4,0-18.7c6.2,3.4,12.4,3.4,18.7,0
			C211.2,51.5,211.2,57.8,214.6,64z"/>
		<g>
			<path class="st0" d="M242.1,54.4c-3.9-1.5-5.4-4-8.5-6.5c-3.3-2.6-8-2.4-11.1,0.6c-1.6,1.6-2.4,3.7-2.4,5.9
				c0,2.1,0.8,4.2,2.4,5.9c3,3,7.8,3.2,11.1,0.6C236.7,58.4,238.2,55.9,242.1,54.4L242.1,54.4z"/>
		</g>
		<g>
			<path class="st0" d="M205.7,168.7c-1.5,3.9-4,5.4-6.5,8.5c-2.6,3.3-2.4,8,0.6,11.1c1.6,1.6,3.7,2.4,5.9,2.4
				c2.1,0,4.2-0.8,5.9-2.4c3-3,3.2-7.8,0.6-11.1C209.6,174.1,207.1,172.6,205.7,168.7L205.7,168.7z"/>
		</g>
		<g>
			<path class="st0" d="M205.7,241.5c1.5-3.9,4-5.4,6.5-8.5c2.6-3.3,2.4-8-0.6-11.1c-1.6-1.6-3.7-2.4-5.9-2.4
				c-2.1,0-4.2,0.8-5.9,2.4c-3,3-3.2,7.8-0.6,11.1C201.7,236.2,204.2,237.6,205.7,241.5L205.7,241.5z"/>
		</g>
		<g>
			<path class="st0" d="M169.2,205.1c3.9,1.5,5.4,4,8.5,6.5c3.3,2.6,8,2.4,11.1-0.6c1.6-1.6,2.4-3.7,2.4-5.9c0-2.1-0.8-4.2-2.4-5.9
				c-3-3-7.8-3.2-11.1-0.6C174.6,201.2,173.2,203.6,169.2,205.1L169.2,205.1z"/>
		</g>
		<path class="st0" d="M214.6,214.7c-6.2-3.4-12.4-3.4-18.7,0c3.4-6.2,3.4-12.4,0-18.7c6.2,3.4,12.4,3.4,18.7,0
			C211.2,202.2,211.2,208.4,214.6,214.7z"/>
		<g>
			<path class="st0" d="M242.1,205.1c-3.9-1.5-5.4-4-8.5-6.5c-3.3-2.6-8-2.4-11.1,0.6c-1.6,1.6-2.4,3.7-2.4,5.9
				c0,2.1,0.8,4.2,2.4,5.9c3,3,7.8,3.2,11.1,0.6C236.7,209.1,238.2,206.6,242.1,205.1L242.1,205.1z"/>
		</g>
		<g>
			<path class="st0" d="M54.3,168.7c-1.5,3.9-4,5.4-6.5,8.5c-2.6,3.3-2.4,8,0.6,11.1c1.6,1.6,3.7,2.4,5.9,2.4c2.1,0,4.2-0.8,5.9-2.4
				c3-3,3.2-7.8,0.6-11.1C58.3,174.1,55.8,172.6,54.3,168.7L54.3,168.7z"/>
		</g>
		<g>
			<path class="st0" d="M54.3,241.5c1.5-3.9,4-5.4,6.5-8.5c2.6-3.3,2.4-8-0.6-11.1c-1.6-1.6-3.7-2.4-5.9-2.4c-2.1,0-4.2,0.8-5.9,2.4
				c-3,3-3.2,7.8-0.6,11.1C50.4,236.2,52.9,237.6,54.3,241.5L54.3,241.5z"/>
		</g>
		<g>
			<path class="st0" d="M17.9,205.1c3.9,1.5,5.4,4,8.5,6.5c3.3,2.6,8,2.4,11.1-0.6c1.6-1.6,2.4-3.7,2.4-5.9c0-2.1-0.8-4.2-2.4-5.9
				c-3-3-7.8-3.2-11.1-0.6C23.3,201.2,21.8,203.6,17.9,205.1L17.9,205.1z"/>
		</g>
		<path class="st0" d="M63.3,214.7c-6.2-3.4-12.4-3.4-18.7,0c3.4-6.2,3.4-12.4,0-18.7c6.2,3.4,12.4,3.4,18.7,0
			C59.9,202.2,59.9,208.4,63.3,214.7z"/>
		<g>
			<path class="st0" d="M90.8,205.1c-3.9-1.5-5.4-4-8.5-6.5c-3.3-2.6-8-2.4-11.1,0.6c-1.6,1.6-2.4,3.7-2.4,5.9
				c0,2.1,0.8,4.2,2.4,5.9c3,3,7.8,3.2,11.1,0.6C85.4,209.1,86.8,206.6,90.8,205.1L90.8,205.1z"/>
		</g>
		<g>
			<g>
				<path class="st0" d="M54.3,18.2c-1.5,3.9-4,5.4-6.5,8.5c-2.6,3.3-2.4,8,0.6,11.1c1.6,1.6,3.7,2.4,5.9,2.4c2.1,0,4.2-0.8,5.9-2.4
					c3-3,3.2-7.8,0.6-11.1C58.3,23.6,55.8,22.1,54.3,18.2L54.3,18.2z"/>
			</g>
			<g>
				<path class="st0" d="M54.3,91.1c1.5-3.9,4-5.4,6.5-8.5c2.6-3.3,2.4-8-0.6-11.1c-1.6-1.6-3.7-2.4-5.9-2.4c-2.1,0-4.2,0.8-5.9,2.4
					c-3,3-3.2,7.8-0.6,11.1C50.4,85.7,52.9,87.1,54.3,91.1L54.3,91.1z"/>
			</g>
			<g>
				<path class="st0" d="M17.9,54.6c3.9,1.5,5.4,4,8.5,6.5c3.3,2.6,8,2.4,11.1-0.6c1.6-1.6,2.4-3.7,2.4-5.9c0-2.1-0.8-4.2-2.4-5.9
					c-3-3-7.8-3.2-11.1-0.6C23.3,50.7,21.8,53.2,17.9,54.6L17.9,54.6z"/>
			</g>
			<path class="st0" d="M63.3,64.2c-6.2-3.4-12.4-3.4-18.7,0c3.4-6.2,3.4-12.4,0-18.7c6.2,3.4,12.4,3.4,18.7,0
				C59.9,51.7,59.9,58,63.3,64.2z"/>
			<g>
				<path class="st0" d="M90.8,54.6c-3.9-1.5-5.4-4-8.5-6.5c-3.3-2.6-8-2.4-11.1,0.6c-1.6,1.6-2.4,3.7-2.4,5.9
					c0,2.1,0.8,4.2,2.4,5.9c3,3,7.8,3.2,11.1,0.6C85.4,58.6,86.8,56.1,90.8,54.6L90.8,54.6z"/>
			</g>
		</g>
		<g>
			<polygon class="st0" points="153.4,247.7 153.4,234 139.7,234 130,224.3 120.3,234 106.6,234 106.6,247.7 96.9,257.4 
				105.6,257.4 110.9,252.1 112.7,250.3 112.7,247.7 112.7,240.1 122.8,240.1 124.6,238.3 130,233 135.4,238.3 137.2,240.1 
				147.3,240.1 147.3,247.7 147.3,250.3 149.1,252.1 154.4,257.4 163.1,257.4 			"/>
			<polygon class="st0" points="106.6,26 120.3,26 130,35.7 139.7,26 153.4,26 153.4,12.3 163.1,2.6 154.4,2.6 149.1,7.9 147.3,9.7 
				147.3,12.3 147.3,19.9 137.2,19.9 135.4,21.7 130,27 124.6,21.7 122.8,19.9 112.7,19.9 112.7,12.3 112.7,9.7 110.9,7.9 
				105.6,2.6 96.9,2.6 106.6,12.3 			"/>
		</g>
	</g>
</g>
</svg>
