<?xml version="1.0" encoding="utf-8"?>
<!-- Generator: Adobe Illustrator 21.0.0, SVG Export Plug-In . SVG Version: 6.00 Build 0)  -->
<svg version="1.1" id="Layer_1" xmlns="http://www.w3.org/2000/svg" xmlns:xlink="http://www.w3.org/1999/xlink" x="0px" y="0px"
	 width="40px" height="40px" viewBox="0 0 40 40" style="enable-background:new 0 0 40 40;" xml:space="preserve">
<path d="M0,0v40h40V0H0z M38,38H2V2h36V38z M7.1,5.5c0.2,0,0.5-0.1,0.7-0.3c0.3-0.4,0.3-0.9,0-1.2
	C7.5,3.6,7.2,3.4,7.1,3C6.9,3.4,6.6,3.6,6.3,4C6,4.3,6.1,4.8,6.4,5.2C6.6,5.4,6.8,5.5,7.1,5.5z M7.1,11.1c0.2-0.4,0.4-0.6,0.7-1
	c0.3-0.4,0.3-0.9-0.1-1.2C7.5,8.8,7.3,8.7,7.1,8.7C6.9,8.7,6.6,8.8,6.4,9C6.1,9.3,6,9.8,6.3,10.2C6.6,10.5,6.9,10.7,7.1,11.1z
	 M5.2,7.7C5.4,7.5,5.5,7.3,5.5,7c0-0.2-0.1-0.5-0.3-0.7C4.8,6.1,4.3,6,4,6.3C3.6,6.6,3.4,6.9,3,7.1c0.4,0.2,0.6,0.4,1,0.7
	S4.9,8.1,5.2,7.7z M8.1,8.1C7.7,7.4,7.7,6.7,8.1,6C7.4,6.4,6.7,6.4,6,6c0.4,0.7,0.4,1.4,0,2.1C6.7,7.7,7.4,7.7,8.1,8.1z M10.2,7.9
	c0.3-0.4,0.5-0.7,0.9-0.8c-0.4-0.2-0.6-0.4-1-0.7C9.8,6,9.3,6.1,8.9,6.4C8.8,6.6,8.7,6.8,8.7,7.1c0,0.2,0.1,0.5,0.3,0.7
	C9.3,8.1,9.9,8.2,10.2,7.9z M33,5.5c0.2,0,0.5-0.1,0.7-0.3c0.2-0.4,0.3-0.9,0-1.2c-0.3-0.4-0.6-0.6-0.8-1c-0.2,0.4-0.4,0.6-0.7,1
	s-0.3,0.9,0.1,1.2C32.5,5.4,32.7,5.5,33,5.5z M32.9,11.1c0.2-0.4,0.4-0.6,0.7-1c0.3-0.4,0.3-0.9-0.1-1.2c-0.2-0.2-0.4-0.3-0.7-0.3
	c-0.2,0-0.5,0.1-0.7,0.3c-0.3,0.3-0.4,0.9-0.1,1.2C32.5,10.5,32.8,10.7,32.9,11.1z M31.1,7.7c0.2-0.2,0.3-0.4,0.3-0.7
	c0-0.2-0.1-0.5-0.3-0.7c-0.3-0.3-0.9-0.4-1.2-0.1c-0.4,0.4-0.6,0.7-1,0.9c0.4,0.2,0.6,0.4,1,0.7C30.3,8.1,30.8,8.1,31.1,7.7z
	 M33.9,8.1c-0.3-0.7-0.3-1.4,0-2.1c-0.7,0.4-1.4,0.4-2.1,0c0.4,0.7,0.4,1.4,0,2.1C32.5,7.7,33.2,7.7,33.9,8.1z M36,8
	c0.4-0.5,0.6-0.8,1-0.9c-0.4-0.2-0.6-0.4-1-0.7c-0.4-0.3-0.9-0.3-1.2,0.1c-0.2,0.2-0.3,0.4-0.3,0.7c0,0.2,0.1,0.5,0.3,0.7
	C35.1,8.2,35.7,8.3,36,8z M7.2,31.4c0.2,0,0.5-0.1,0.7-0.3c0.3-0.3,0.4-0.9,0.1-1.2c-0.5-0.4-0.8-0.6-0.9-1c-0.2,0.4-0.4,0.6-0.7,1
	c-0.3,0.4-0.3,0.9,0.1,1.2C6.7,31.3,6.9,31.4,7.2,31.4z M7,34.5c-0.2,0-0.5,0.1-0.7,0.3c-0.2,0.4-0.3,0.9,0,1.2
	c0.3,0.4,0.6,0.6,0.8,1c0.2-0.4,0.4-0.6,0.7-1s0.3-0.9-0.1-1.2C7.5,34.6,7.3,34.5,7,34.5z M5.2,33.5c0.2-0.2,0.3-0.4,0.3-0.7
	c0-0.2-0.1-0.5-0.3-0.7C4.9,31.8,4.3,31.7,4,32c-0.4,0.5-0.6,0.8-1,0.9c0.4,0.2,0.6,0.4,1,0.7C4.4,33.9,4.9,33.9,5.2,33.5z M8.1,34
	c-0.4-0.7-0.4-1.4,0-2.1c-0.7,0.4-1.4,0.4-2.1,0c0.4,0.7,0.4,1.4,0,2.1C6.7,33.6,7.4,33.6,8.1,34z M10.1,33.8c0.4-0.4,0.6-0.7,1-0.9
	c-0.4-0.2-0.6-0.4-1-0.7c-0.4-0.3-0.9-0.3-1.2,0.1c-0.2,0.2-0.3,0.4-0.3,0.7c0,0.2,0.1,0.5,0.3,0.7C9.2,34,9.8,34.1,10.1,33.8z
	 M32.9,28.9c-0.2,0.4-0.4,0.6-0.7,1c-0.3,0.4-0.3,0.9,0.1,1.2c0.2,0.2,0.4,0.3,0.7,0.3c0.2,0,0.5-0.1,0.7-0.3
	c0.3-0.3,0.4-0.9,0.1-1.2C33.4,29.5,33.1,29.3,32.9,28.9z M32.8,34.5c-0.2,0-0.5,0.1-0.7,0.3c-0.3,0.3-0.4,0.9-0.1,1.2
	c0.5,0.4,0.8,0.6,0.9,1c0.2-0.4,0.4-0.6,0.7-1c0.3-0.4,0.3-0.9-0.1-1.2C33.3,34.6,33.1,34.5,32.8,34.5z M29.9,32
	c-0.4,0.5-0.6,0.8-1,0.9c0.4,0.2,0.6,0.4,1,0.7c0.4,0.3,0.9,0.3,1.2-0.1c0.2-0.2,0.3-0.4,0.3-0.7c0-0.2-0.1-0.5-0.3-0.7
	C30.8,31.8,30.2,31.7,29.9,32z M31.8,31.9c0.4,0.7,0.4,1.4,0,2.1c0.7-0.4,1.4-0.4,2.1,0c-0.3-0.7-0.3-1.4,0-2.1
	C33.2,32.3,32.5,32.3,31.8,31.9z M36,33.8c0.4-0.4,0.6-0.7,1-0.9c-0.4-0.2-0.6-0.4-1-0.7s-0.9-0.3-1.2,0.1c-0.2,0.2-0.3,0.4-0.3,0.7
	c0,0.2,0.1,0.5,0.3,0.7C35.1,34,35.7,34.1,36,33.8z M29,29l-0.8-3H24v3H29z M11,29h8v-3h5v-3h3.5l-0.9-3.5c1.3-1.5,2.1-3.5,2.1-5.7
	v-3.6h-3.4v3.5h-3.4v-3.4h-3.4v3.4H15v-3.4h-3.4v3.6c0,2.2,0.8,4.1,2.1,5.6L11,29z M29,25h5v-3h-5V25z M17,33h5v-3h-5V33z"/>
</svg>
