<?xml version="1.0" encoding="utf-8"?>
<!-- Generator: Adobe Illustrator 21.0.0, SVG Export Plug-In . SVG Version: 6.00 Build 0)  -->
<svg version="1.1" id="Layer_1" xmlns="http://www.w3.org/2000/svg" xmlns:xlink="http://www.w3.org/1999/xlink" x="0px" y="0px"
	 width="348px" height="348px" viewBox="0 0 348 348" style="enable-background:new 0 0 348 348;" xml:space="preserve">
<style type="text/css">
	.st0{fill:#6175B4;}
</style>
<g>
	<g>
		<g>
			<path class="st0" d="M174,98.6c7.9,14,17.5,24,27.5,34.5c6.3,6.6,12.9,13.5,19.4,21.7l0,0l0,0c9.3,11.5,14,26,13.3,40.8
				c-0.7,14.9-7,29-17.6,39.6C205.2,246.7,190.1,253,174,253c-16.1,0-31.2-6.3-42.6-17.7c-10.6-10.6-16.8-24.7-17.6-39.6
				c-0.7-14.8,4-29.3,13.3-40.8l0,0l0,0c6.5-8.2,13-15.1,19.4-21.7C156.5,122.6,166.1,112.6,174,98.6 M174,79.7
				c-12.2,32.2-32.7,44.1-53.2,70.1c-21.7,26.8-20,66.2,4.9,91.1c13.3,13.3,30.8,20,48.3,20c17.5,0,34.9-6.7,48.3-20
				c24.9-24.9,26.5-64.3,4.9-91.1C206.7,123.8,186.2,111.9,174,79.7L174,79.7z"/>
			<path class="st0" d="M174,241c-12.9,0-25-5-34.1-14.1c-17.5-17.5-19-45.2-3.5-64.4l0.2-0.2c6.1-7.8,12.5-14.4,18.6-20.8
				c6.3-6.6,12.8-13.4,18.8-21.2c6,7.8,12.5,14.6,18.8,21.2c6.1,6.4,12.5,13.1,18.6,20.8l0.2,0.2c15.5,19.2,14,46.9-3.5,64.4
				C199,236,186.9,241,174,241z"/>
		</g>
		<g>
			<polygon class="st0" points="23.3,129.1 25.6,131.5 28.9,131.5 50.5,131.5 50.5,153.1 50.5,156.4 52.9,158.7 68.1,174 
				52.9,189.3 50.5,191.6 50.5,194.9 50.5,216.5 28.9,216.5 25.6,216.5 23.3,218.9 8,234.1 8,245.4 28.9,224.5 58.5,224.5 
				58.5,194.9 79.4,174 58.5,153.1 58.5,123.5 28.9,123.5 8,102.6 8,113.9 			"/>
			<polygon class="st0" points="324.7,218.9 322.4,216.5 319.1,216.5 297.5,216.5 297.5,194.9 297.5,191.6 295.1,189.3 279.9,174 
				295.1,158.7 297.5,156.4 297.5,153.1 297.5,131.5 319.1,131.5 322.4,131.5 324.7,129.1 340,113.9 340,102.6 319.1,123.5 
				289.5,123.5 289.5,153.1 268.6,174 289.5,194.9 289.5,224.5 319.1,224.5 340,245.4 340,234.1 			"/>
			<polygon class="st0" points="224.5,289.5 194.9,289.5 174,268.6 153.1,289.5 123.5,289.5 123.5,319.1 102.6,340 113.9,340 
				129.1,324.7 131.5,322.4 131.5,319.1 131.5,297.5 153.1,297.5 156.4,297.5 158.7,295.1 174,279.9 189.3,295.1 191.6,297.5 
				194.9,297.5 216.5,297.5 216.5,319.1 216.5,322.4 218.9,324.7 234.1,340 245.4,340 224.5,319.1 			"/>
			<polygon class="st0" points="123.5,58.5 153.1,58.5 174,79.4 194.9,58.5 224.5,58.5 224.5,28.9 245.4,8 234.1,8 218.9,23.3 
				216.5,25.6 216.5,28.9 216.5,50.5 194.9,50.5 191.6,50.5 189.3,52.9 174,68.1 158.7,52.9 156.4,50.5 153.1,50.5 131.5,50.5 
				131.5,28.9 131.5,25.6 129.1,23.3 113.9,8 102.6,8 123.5,28.9 			"/>
		</g>
		<path class="st0" d="M340,8v332H8V8H340 M348,0h-8H8H0v8v332v8h8h332h8v-8V8V0L348,0z"/>
		<g>
			<g>
				<path class="st0" d="M272.6,28.1c-1.9,5.1-5.2,7-8.4,11.1c-3.4,4.2-3.2,10.5,0.8,14.4c2.1,2.1,4.9,3.2,7.6,3.2
					c2.8,0,5.5-1.1,7.6-3.2c3.9-3.9,4.2-10.2,0.8-14.4C277.7,35.1,274.5,33.2,272.6,28.1L272.6,28.1z"/>
			</g>
		</g>
		<g>
			<g>
				<path class="st0" d="M272.6,123c1.9-5.1,5.2-7,8.4-11.1c3.4-4.2,3.2-10.5-0.8-14.4c-2.1-2.1-4.9-3.2-7.6-3.2
					c-2.8,0-5.5,1.1-7.6,3.2c-3.9,3.9-4.2,10.2-0.8,14.4C267.4,116,270.6,117.9,272.6,123L272.6,123z"/>
			</g>
		</g>
		<g>
			<g>
				<path class="st0" d="M225.1,75.6c5.1,1.9,7,5.2,11.1,8.4c4.2,3.4,10.5,3.2,14.4-0.8c2.1-2.1,3.2-4.9,3.2-7.6
					c0-2.8-1.1-5.5-3.2-7.6c-3.9-3.9-10.2-4.2-14.4-0.8C232.1,70.4,230.2,73.6,225.1,75.6L225.1,75.6z"/>
			</g>
		</g>
		<g>
			<path class="st0" d="M284.3,88c-8.1-4.5-16.2-4.5-24.3,0c4.5-8.1,4.5-16.2,0-24.3c8.1,4.5,16.2,4.5,24.3,0
				C279.8,71.8,279.8,79.9,284.3,88z"/>
		</g>
		<g>
			<g>
				<path class="st0" d="M320,75.6c-5.1-1.9-7-5.2-11.1-8.4c-4.2-3.4-10.5-3.2-14.4,0.8c-2.1,2.1-3.2,4.9-3.2,7.6
					c0,2.8,1.1,5.5,3.2,7.6c3.9,3.9,10.2,4.2,14.4,0.8C313,80.7,314.9,77.5,320,75.6L320,75.6z"/>
			</g>
		</g>
		<g>
			<g>
				<path class="st0" d="M272.6,224.4c-1.9,5.1-5.2,7-8.4,11.1c-3.4,4.2-3.2,10.5,0.8,14.4c2.1,2.1,4.9,3.2,7.6,3.2
					c2.8,0,5.5-1.1,7.6-3.2c3.9-3.9,4.2-10.2,0.8-14.4C277.7,231.4,274.5,229.5,272.6,224.4L272.6,224.4z"/>
			</g>
		</g>
		<g>
			<g>
				<path class="st0" d="M272.6,319.3c1.9-5.1,5.2-7,8.4-11.1c3.4-4.2,3.2-10.5-0.8-14.4c-2.1-2.1-4.9-3.2-7.6-3.2
					c-2.8,0-5.5,1.1-7.6,3.2c-3.9,3.9-4.2,10.2-0.8,14.4C267.4,312.3,270.6,314.2,272.6,319.3L272.6,319.3z"/>
			</g>
		</g>
		<g>
			<g>
				<path class="st0" d="M225.1,271.9c5.1,1.9,7,5.2,11.1,8.4c4.2,3.4,10.5,3.2,14.4-0.8c2.1-2.1,3.2-4.9,3.2-7.6
					c0-2.8-1.1-5.5-3.2-7.6c-3.9-3.9-10.2-4.2-14.4-0.8C232.1,266.7,230.2,269.9,225.1,271.9L225.1,271.9z"/>
			</g>
		</g>
		<g>
			<path class="st0" d="M284.3,284.3c-8.1-4.5-16.2-4.5-24.3,0c4.5-8.1,4.5-16.2,0-24.3c8.1,4.5,16.2,4.5,24.3,0
				C279.8,268.1,279.8,276.2,284.3,284.3z"/>
		</g>
		<g>
			<g>
				<path class="st0" d="M320,271.9c-5.1-1.9-7-5.2-11.1-8.4c-4.2-3.4-10.5-3.2-14.4,0.8c-2.1,2.1-3.2,4.9-3.2,7.6
					c0,2.8,1.1,5.5,3.2,7.6c3.9,3.9,10.2,4.2,14.4,0.8C313,277.1,314.9,273.8,320,271.9L320,271.9z"/>
			</g>
		</g>
		<g>
			<g>
				<path class="st0" d="M75.4,224.4c-1.9,5.1-5.2,7-8.4,11.1c-3.4,4.2-3.2,10.5,0.8,14.4c2.1,2.1,4.9,3.2,7.6,3.2
					c2.8,0,5.5-1.1,7.6-3.2c3.9-3.9,4.2-10.2,0.8-14.4C80.6,231.4,77.4,229.5,75.4,224.4L75.4,224.4z"/>
			</g>
		</g>
		<g>
			<g>
				<path class="st0" d="M75.4,319.3c1.9-5.1,5.2-7,8.4-11.1c3.4-4.2,3.2-10.5-0.8-14.4c-2.1-2.1-4.9-3.2-7.6-3.2
					c-2.8,0-5.5,1.1-7.6,3.2c-3.9,3.9-4.2,10.2-0.8,14.4C70.3,312.3,73.5,314.2,75.4,319.3L75.4,319.3z"/>
			</g>
		</g>
		<g>
			<g>
				<path class="st0" d="M28,271.9c5.1,1.9,7,5.2,11.1,8.4c4.2,3.4,10.5,3.2,14.4-0.8c2.1-2.1,3.2-4.9,3.2-7.6
					c0-2.8-1.1-5.5-3.2-7.6c-3.9-3.9-10.2-4.2-14.4-0.8C35,266.7,33.1,269.9,28,271.9L28,271.9z"/>
			</g>
		</g>
		<g>
			<path class="st0" d="M87.2,284.3c-8.1-4.5-16.2-4.5-24.3,0c4.5-8.1,4.5-16.2,0-24.3c8.1,4.5,16.2,4.5,24.3,0
				C82.7,268.1,82.7,276.2,87.2,284.3z"/>
		</g>
		<g>
			<g>
				<path class="st0" d="M122.9,271.9c-5.1-1.9-7-5.2-11.1-8.4c-4.2-3.4-10.5-3.2-14.4,0.8c-2.1,2.1-3.2,4.9-3.2,7.6
					c0,2.8,1.1,5.5,3.2,7.6c3.9,3.9,10.2,4.2,14.4,0.8C115.9,277.1,117.8,273.8,122.9,271.9L122.9,271.9z"/>
			</g>
		</g>
		<g>
			<g>
				<g>
					<path class="st0" d="M75.4,28.4c-1.9,5.1-5.2,7-8.4,11.1c-3.4,4.2-3.2,10.5,0.8,14.4c2.1,2.1,4.9,3.2,7.6,3.2
						c2.8,0,5.5-1.1,7.6-3.2c3.9-3.9,4.2-10.2,0.8-14.4C80.6,35.4,77.4,33.5,75.4,28.4L75.4,28.4z"/>
				</g>
			</g>
			<g>
				<g>
					<path class="st0" d="M75.4,123.3c1.9-5.1,5.2-7,8.4-11.1c3.4-4.2,3.2-10.5-0.8-14.4c-2.1-2.1-4.9-3.2-7.6-3.2
						c-2.8,0-5.5,1.1-7.6,3.2c-3.9,3.9-4.2,10.2-0.8,14.4C70.3,116.3,73.5,118.2,75.4,123.3L75.4,123.3z"/>
				</g>
			</g>
			<g>
				<g>
					<path class="st0" d="M28,75.8c5.1,1.9,7,5.2,11.1,8.4c4.2,3.4,10.5,3.2,14.4-0.8c2.1-2.1,3.2-4.9,3.2-7.6
						c0-2.8-1.1-5.5-3.2-7.6c-3.9-3.9-10.2-4.2-14.4-0.8C35,70.6,33.1,73.9,28,75.8L28,75.8z"/>
				</g>
			</g>
			<g>
				<path class="st0" d="M87.2,88.2c-8.1-4.5-16.2-4.5-24.3,0c4.5-8.1,4.5-16.2,0-24.3c8.1,4.5,16.2,4.5,24.3,0
					C82.7,72,82.7,80.1,87.2,88.2z"/>
			</g>
			<g>
				<g>
					<path class="st0" d="M122.9,75.8c-5.1-1.9-7-5.2-11.1-8.4c-4.2-3.4-10.5-3.2-14.4,0.8c-2.1,2.1-3.2,4.9-3.2,7.6
						c0,2.8,1.1,5.5,3.2,7.6c3.9,3.9,10.2,4.2,14.4,0.8C115.9,81,117.8,77.8,122.9,75.8L122.9,75.8z"/>
				</g>
			</g>
		</g>
		<g>
			<g>
				<polygon class="st0" points="174,296.8 161.4,309.5 143.5,309.5 143.5,327.4 130.8,340 142.2,340 149.1,333 151.5,330.7 
					151.5,327.4 151.5,317.5 161.4,317.5 164.7,317.5 167,315.1 174,308.2 181,315.1 183.3,317.5 186.6,317.5 196.5,317.5 
					196.5,327.4 196.5,330.7 198.9,333 205.8,340 217.2,340 204.5,327.4 204.5,309.5 186.6,309.5 174,296.8 				"/>
			</g>
			<g>
				<polygon class="st0" points="8,130.9 8,142.2 14.9,149.1 17.2,151.5 20.5,151.5 30.4,151.5 30.4,161.4 30.4,164.7 32.8,167 
					39.8,174 32.8,181 30.4,183.3 30.4,186.6 30.4,196.5 20.5,196.5 17.2,196.5 14.9,198.9 8,205.8 8,217.1 20.5,204.5 38.4,204.5 
					38.4,186.6 51.1,174 38.4,161.4 38.4,143.5 20.5,143.5 8,130.9 				"/>
			</g>
			<g>
				<path class="st0" d="M317.4,183.3L317.4,183.3L317.4,183.3 M339.9,130.8l-12.6,12.6h-17.9v17.9L296.7,174l12.6,12.6v17.9h17.9
					l12.6,12.6l0.1-0.1v-11.3l-0.1,0.1l-7-7l-2.3-2.3h-3.3h-9.9v-9.9v-3.3L315,181l-7-7l7-7l2.3-2.3v-3.3v-9.9h9.9h3.3l2.3-2.3l7-7
					l0.1,0.1L339.9,130.8L339.9,130.8L339.9,130.8z"/>
			</g>
			<g>
				<polygon class="st0" points="217.2,8 205.8,8 198.9,15 196.5,17.3 196.5,20.6 196.5,30.5 186.6,30.5 183.3,30.5 181,32.9 
					174,39.8 167,32.9 164.7,30.5 161.4,30.5 151.5,30.5 151.5,20.6 151.5,17.3 149.1,15 142.2,8 130.8,8 143.5,20.6 143.5,38.5 
					161.4,38.5 174,51.2 186.6,38.5 204.5,38.5 204.5,20.6 217.2,8 				"/>
			</g>
		</g>
	</g>
</g>
</svg>
