<?xml version="1.0" encoding="utf-8"?>
<!-- Generator: Adobe Illustrator 21.0.0, SVG Export Plug-In . SVG Version: 6.00 Build 0)  -->
<svg version="1.1" id="Layer_1" xmlns="http://www.w3.org/2000/svg" xmlns:xlink="http://www.w3.org/1999/xlink" x="0px" y="0px" viewBox="0 0 106 50" style="enable-background:new 0 0 105.8 50;" xml:space="preserve">
<style type="text/css">
	path{fill:#5776B7;}
</style>
<g>
	<path d="M0,0h4.7C5.9,0,7,0.2,7.9,0.7c0.9,0.5,1.6,1.1,2.1,2c0.5,0.9,0.7,1.9,0.7,3c0,1.2-0.2,2.2-0.7,3.1
		c-0.5,0.9-1.2,1.5-2.1,2c-0.9,0.5-2,0.7-3.3,0.7H0V0z M4.5,9C5.6,9,6.4,8.7,7,8.2c0.6-0.6,0.8-1.4,0.8-2.5c0-2.2-1.1-3.3-3.3-3.3H3
		V9H4.5z"/>
	<path d="M22.4,11.4h-3.2l-1.5-3.8C17.6,7.2,17.2,7,16.6,7h-1.1v4.4h-3V0h5.3c1.4,0,2.4,0.3,3.1,0.9s1,1.4,1,2.5
		c0,0.8-0.2,1.4-0.6,2c-0.4,0.6-1,1-1.7,1.2c0.3,0.1,0.6,0.2,0.9,0.4C20.7,7.3,21,7.6,21.1,8L22.4,11.4z M18.7,4.4
		c0.3-0.2,0.4-0.5,0.4-0.9c0-0.4-0.1-0.8-0.4-0.9S18,2.3,17.3,2.3h-1.9v2.5h1.9C18,4.7,18.5,4.6,18.7,4.4z"/>
	<path d="M25.2,10.3c-0.9-0.8-1.3-2.1-1.3-3.7V0h2.9v6.7c0,0.8,0.2,1.5,0.6,1.9C27.8,9,28.3,9.3,29,9.3
		c0.7,0,1.2-0.2,1.6-0.7c0.4-0.4,0.5-1.1,0.5-1.9V0h3v6.6c0,1.6-0.4,2.8-1.3,3.7s-2.1,1.3-3.8,1.3C27.3,11.6,26.1,11.1,25.2,10.3z"
		/>
	<path d="M36,0h5.4c1.3,0,2.3,0.3,3,0.9c0.7,0.6,1.1,1.5,1.1,2.5c0,1.1-0.4,1.9-1.1,2.5S42.7,7,41.5,7H39v4.5h-3V0z
		 M41.1,4.7c1.1,0,1.7-0.4,1.7-1.2c0-0.4-0.1-0.7-0.4-0.9s-0.7-0.3-1.3-0.3h-2v2.4H41.1z"/>
	<path d="M54.5,11.4l-1-2.4h-5.1l-1,2.4h-3L49.7,0h2.4l5.4,11.4H54.5z M49.4,6.8h3.1L51,3.2L49.4,6.8z"/>
	<path d="M58.1,11.4V0h3v9H66v2.4H58.1z"/>
	<path d="M72.1,0h4.7C78,0,79.1,0.2,80,0.7c0.9,0.5,1.6,1.1,2.1,2s0.7,1.9,0.7,3c0,1.2-0.2,2.2-0.7,3.1
		c-0.5,0.9-1.2,1.5-2.1,2c-0.9,0.5-2,0.7-3.3,0.7h-4.7V0z M76.5,9c1.1,0,1.9-0.3,2.5-0.8c0.6-0.6,0.8-1.4,0.8-2.5
		c0-2.2-1.1-3.3-3.3-3.3h-1.4V9H76.5z"/>
	<path d="M84.6,11.4V0h8.1v2.3h-5.2v2.1h4.9v2.3h-4.9v2.3h5.2v2.3H84.6z"/>
	<path d="M102.8,0h3l-5.2,11.4h-2.4L93,0h3.1l3.3,7.7L102.8,0z"/>
	<path d="M0,19.2h4.7c1.3,0,2.3,0.2,3.3,0.7c0.9,0.5,1.6,1.1,2.1,2c0.5,0.9,0.7,1.9,0.7,3c0,1.2-0.2,2.2-0.7,3.1
		c-0.5,0.9-1.2,1.5-2.1,2c-0.9,0.5-2,0.7-3.3,0.7H0V19.2z M4.5,28.3c1.1,0,1.9-0.3,2.5-0.8c0.6-0.5,0.8-1.4,0.8-2.5
		c0-2.2-1.1-3.3-3.3-3.3H3v6.6H4.5z"/>
	<path d="M20.9,30.7l-1-2.4h-5.1l-1,2.4h-3l5.3-11.4h2.4l5.4,11.4H20.9z M15.8,26h3.1l-1.6-3.6L15.8,26z"/>
	<path d="M33.7,19.2l-4.8,7.1v4.4h-3v-4.4l-4.8-7h3.4l2.9,4.6l2.9-4.6H33.7z"/>
	<path d="M34.9,30.5c-0.8-0.2-1.5-0.5-2-0.9l0.9-2.1c0.6,0.4,1.1,0.6,1.8,0.8c0.6,0.2,1.3,0.3,1.9,0.3
		c0.6,0,1.1-0.1,1.5-0.3c0.3-0.2,0.5-0.4,0.5-0.7c0-0.3-0.2-0.5-0.5-0.7c-0.3-0.2-0.9-0.4-1.7-0.6c-1.1-0.2-1.9-0.5-2.5-0.8
		c-0.6-0.3-1-0.7-1.3-1.1c-0.2-0.4-0.4-0.9-0.4-1.6c0-0.7,0.2-1.3,0.6-1.9c0.4-0.6,1-1,1.7-1.3c0.7-0.3,1.5-0.5,2.5-0.5
		c0.8,0,1.6,0.1,2.4,0.3c0.8,0.2,1.4,0.5,1.8,0.9l-0.9,2.1c-0.5-0.4-1-0.6-1.6-0.8c-0.6-0.2-1.1-0.3-1.7-0.3c-0.5,0-1,0.1-1.3,0.3
		c-0.3,0.2-0.5,0.5-0.5,0.8c0,0.2,0.1,0.4,0.2,0.5c0.1,0.1,0.3,0.3,0.7,0.4c0.3,0.1,0.8,0.3,1.4,0.4c1,0.2,1.9,0.5,2.4,0.8
		s1,0.7,1.3,1.1s0.4,0.9,0.4,1.5c0,1.1-0.4,2-1.3,2.6c-0.9,0.6-2.1,1-3.7,1C36.6,30.8,35.8,30.7,34.9,30.5z"/>
	<path d="M48.7,30.7V19.2H50v10.3h5.7v1.1H48.7z"/>
	<path d="M57.4,30.7V19.2h1.3v11.4H57.4z"/>
	<path d="M60.9,29.3l0.5-1c0.6,0.5,1.1,0.8,1.7,1c0.6,0.2,1.3,0.3,2.1,0.3c0.9,0,1.6-0.2,2.1-0.5s0.7-0.9,0.7-1.5
		c0-0.4-0.1-0.7-0.4-0.9c-0.2-0.2-0.6-0.4-0.9-0.6c-0.4-0.1-0.9-0.3-1.6-0.4c-0.9-0.2-1.6-0.4-2.2-0.6c-0.6-0.2-1-0.5-1.4-1
		c-0.4-0.4-0.5-1-0.5-1.7c0-0.7,0.2-1.2,0.5-1.7s0.8-0.9,1.5-1.2s1.4-0.4,2.2-0.4c0.8,0,1.5,0.1,2.2,0.4c0.7,0.2,1.3,0.6,1.7,1.1
		l-0.5,1c-0.5-0.5-1.1-0.8-1.6-1c-0.5-0.2-1.2-0.3-1.8-0.3c-0.9,0-1.6,0.2-2.1,0.6c-0.5,0.4-0.8,0.9-0.8,1.6c0,0.6,0.2,1,0.7,1.3
		c0.4,0.3,1.1,0.5,2,0.8c1,0.2,1.8,0.5,2.3,0.6c0.6,0.2,1,0.5,1.4,0.9c0.4,0.4,0.6,0.9,0.6,1.6c0,0.6-0.2,1.2-0.5,1.7
		s-0.8,0.9-1.5,1.1c-0.6,0.3-1.4,0.4-2.2,0.4C63.4,30.8,62,30.3,60.9,29.3z"/>
	<path d="M79.5,25.8c0.4,0.5,0.5,1.1,0.5,1.8c0,1-0.3,1.8-1,2.3s-1.6,0.8-2.8,0.8h-4.7V19.2h4.6c1.2,0,2.1,0.3,2.7,0.8
		c0.6,0.5,1,1.3,1,2.2c0,0.6-0.2,1.1-0.5,1.6c-0.3,0.4-0.8,0.8-1.3,1C78.7,25,79.2,25.3,79.5,25.8z M72.8,24.3h3.1
		c0.9,0,1.5-0.2,1.9-0.5c0.4-0.3,0.7-0.8,0.7-1.5c0-1.3-0.9-2-2.6-2h-3.1V24.3z M78.2,29.1c0.4-0.3,0.6-0.9,0.6-1.5
		c0-1.4-0.9-2.1-2.6-2.1h-3.3v4.2h3.3C77.1,29.6,77.7,29.4,78.2,29.1z"/>
	<path d="M84.5,30.1c-0.8-0.5-1.4-1.1-1.8-2c-0.4-0.9-0.6-1.9-0.6-3.1c0-1.2,0.2-2.2,0.6-3.1c0.4-0.9,1-1.5,1.8-2
		s1.7-0.7,2.8-0.7c1.1,0,2,0.2,2.8,0.7s1.4,1.1,1.8,2c0.4,0.9,0.6,1.9,0.6,3.1c0,1.2-0.2,2.2-0.6,3.1c-0.4,0.9-1,1.6-1.8,2
		c-0.8,0.5-1.7,0.7-2.8,0.7C86.2,30.8,85.3,30.6,84.5,30.1z M90.1,28.4c0.7-0.8,1-2,1-3.5s-0.3-2.7-1-3.5c-0.7-0.8-1.6-1.2-2.8-1.2
		c-1.2,0-2.2,0.4-2.8,1.2c-0.7,0.8-1,2-1,3.5c0,1.5,0.3,2.7,1,3.5c0.7,0.8,1.6,1.2,2.8,1.2C88.4,29.7,89.4,29.3,90.1,28.4z"/>
	<path d="M102.7,19.2h1.2v11.4h-1l-6.9-9.2v9.2h-1.2V19.2h1l6.9,9.2V19.2z"/>
	<path d="M7.6,48.8v1.1H0.3v-1l4-4.4c0.5-0.6,0.9-1.1,1.2-1.6c0.2-0.5,0.4-1,0.4-1.4c0-0.6-0.2-1.1-0.5-1.5
		s-0.9-0.5-1.6-0.5c-1.1,0-2.2,0.4-3.2,1.3l-0.5-1c0.4-0.4,1-0.8,1.7-1s1.4-0.4,2.1-0.4c1,0,1.9,0.3,2.5,0.8s0.9,1.3,0.9,2.2
		c0,0.7-0.1,1.3-0.4,1.9c-0.3,0.6-0.8,1.3-1.5,2L2,48.8H7.6z"/>
	<path d="M10.4,48.5c-0.7-1-1-2.4-1-4.4c0-1.9,0.3-3.4,1-4.4c0.7-1,1.7-1.5,3-1.5s2.3,0.5,3,1.5c0.7,1,1,2.4,1,4.3
		c0,1.9-0.3,3.4-1,4.4c-0.7,1-1.7,1.5-3,1.5S11.1,49.5,10.4,48.5z M15.4,47.8c0.4-0.8,0.6-2,0.6-3.6c0-1.6-0.2-2.8-0.6-3.6
		c-0.4-0.8-1.1-1.1-2-1.1c-0.9,0-1.6,0.4-2,1.1c-0.4,0.8-0.6,1.9-0.6,3.6c0,1.6,0.2,2.8,0.6,3.6c0.4,0.8,1.1,1.2,2,1.2
		S15,48.5,15.4,47.8z"/>
	<path d="M24.1,48.8h2.5v1.1h-6.4v-1.1h2.5v-8.7l-2.3,1.5v-1.3l2.9-1.9h0.8V48.8z"/>
	<path d="M36.1,45.1c0.4,0.5,0.6,1.1,0.6,1.8c0,1-0.4,1.7-1.1,2.3c-0.7,0.6-1.7,0.8-3,0.8c-1.3,0-2.2-0.3-3-0.8
		c-0.7-0.6-1.1-1.3-1.1-2.3c0-0.7,0.2-1.3,0.6-1.8c0.4-0.5,1-0.9,1.7-1c-0.7-0.2-1.2-0.5-1.6-1c-0.4-0.5-0.5-1-0.5-1.6
		c0-0.6,0.2-1.1,0.5-1.6c0.3-0.5,0.8-0.8,1.4-1.1c0.6-0.3,1.2-0.4,2-0.4s1.4,0.1,2,0.4c0.6,0.3,1,0.6,1.4,1.1c0.3,0.5,0.5,1,0.5,1.6
		c0,0.6-0.2,1.2-0.6,1.6c-0.4,0.5-0.9,0.8-1.5,1C35.1,44.2,35.7,44.6,36.1,45.1z M34.7,48.4c0.5-0.4,0.7-0.9,0.7-1.6
		c0-0.6-0.3-1.1-0.8-1.5c-0.5-0.4-1.2-0.6-2-0.7c-0.8,0.1-1.5,0.3-2,0.7c-0.5,0.4-0.8,0.9-0.8,1.5c0,0.7,0.2,1.2,0.7,1.6
		s1.2,0.5,2.1,0.5S34.2,48.7,34.7,48.4z M30.8,43c0.5,0.4,1.1,0.6,1.8,0.7c0.8-0.1,1.4-0.3,1.8-0.7c0.5-0.4,0.7-0.9,0.7-1.5
		c0-0.6-0.2-1.1-0.7-1.5c-0.4-0.4-1.1-0.5-1.9-0.5s-1.4,0.2-1.9,0.5c-0.4,0.4-0.7,0.9-0.7,1.5C30.1,42.1,30.4,42.6,30.8,43z"/>
</g>
</svg>
