<?xml version="1.0" encoding="utf-8"?>
<!-- Generator: Adobe Illustrator 21.0.0, SVG Export Plug-In . SVG Version: 6.00 Build 0)  -->
<svg version="1.1" id="Layer_1" xmlns="http://www.w3.org/2000/svg" xmlns:xlink="http://www.w3.org/1999/xlink" x="0px" y="0px"
	 width="100%" height="100%" viewBox="0 0 347.5 541.9" style="enable-background:new 0 0 347.5 541.9;" xml:space="preserve"
	>
<style type="text/css">
	.st0{fill:#5776B7;}
</style>
<g>
	<g>
		<path class="st0" d="M3.3,379.2h15.2c4.1,0,7.6,0.7,10.6,2.2c3,1.5,5.3,3.6,6.8,6.4c1.6,2.8,2.4,6.1,2.4,9.9c0,3.9-0.8,7.2-2.3,10
			c-1.6,2.8-3.8,4.9-6.8,6.4s-6.5,2.2-10.7,2.2H3.3V379.2z M17.8,408.5c3.6,0,6.3-0.9,8.1-2.7c1.8-1.8,2.7-4.5,2.7-8.1
			c0-7.1-3.6-10.7-10.8-10.7h-4.7v21.5H17.8z"/>
		<path class="st0" d="M76.4,416.3H66l-4.8-12.4c-0.6-1.4-1.9-2.1-3.9-2.1h-3.5v14.5h-9.7v-37.1h17.3c4.5,0,7.9,1,10.1,2.9
			c2.3,1.9,3.4,4.7,3.4,8.3c0,2.5-0.7,4.7-2,6.5c-1.3,1.8-3.2,3.1-5.7,3.9c1,0.2,2,0.7,2.8,1.5c0.8,0.8,1.5,1.8,2,3.1L76.4,416.3z
			 M64.3,393.6c0.9-0.6,1.4-1.6,1.4-3c0-1.4-0.5-2.5-1.4-3.1c-0.9-0.6-2.4-0.9-4.6-0.9h-6.2v8h6.2C61.9,394.5,63.4,394.2,64.3,393.6
			z"/>
		<path class="st0" d="M85.3,412.7c-2.8-2.7-4.2-6.7-4.2-12v-21.5h9.5V401c0,2.7,0.6,4.7,1.8,6.2c1.2,1.4,2.9,2.1,5.1,2.1
			c2.2,0,3.9-0.7,5.1-2.2c1.2-1.4,1.8-3.5,1.8-6.1v-21.9h9.7v21.5c0,5.2-1.4,9.2-4.3,12c-2.8,2.8-6.9,4.1-12.2,4.1
			C92.2,416.8,88.1,415.4,85.3,412.7z"/>
		<path class="st0" d="M120.6,379.2h17.7c4.2,0,7.5,1,9.9,3.1c2.3,2,3.5,4.8,3.5,8.3c0,3.4-1.2,6.2-3.5,8.2
			c-2.4,2.1-5.6,3.1-9.8,3.1h-7.9v14.5h-9.8V379.2z M136.9,394.5c3.7,0,5.5-1.3,5.5-3.9c0-1.3-0.4-2.3-1.3-3c-0.9-0.7-2.3-1-4.2-1
			h-6.6v7.9H136.9z"/>
		<path class="st0" d="M180.6,416.3l-3.3-7.7h-16.5l-3.3,7.7h-9.8l17.4-37.1h7.7l17.4,37.1H180.6z M164.1,401.3h10.1l-5.1-11.7
			L164.1,401.3z"/>
		<path class="st0" d="M192.4,416.3v-37.1h9.8v29.2h15.7v7.9H192.4z"/>
		<path class="st0" d="M237.8,379.2H253c4.1,0,7.6,0.7,10.6,2.2c3,1.5,5.3,3.6,6.8,6.4c1.6,2.8,2.4,6.1,2.4,9.9
			c0,3.9-0.8,7.2-2.3,10c-1.6,2.8-3.8,4.9-6.8,6.4s-6.5,2.2-10.7,2.2h-15.2V379.2z M252.3,408.5c3.6,0,6.3-0.9,8.1-2.7
			c1.8-1.8,2.7-4.5,2.7-8.1c0-7.1-3.6-10.7-10.8-10.7h-4.7v21.5H252.3z"/>
		<path class="st0" d="M278.5,416.3v-37.1H305v7.5h-17v7h15.9v7.5h-15.9v7.6h17v7.5H278.5z"/>
		<path class="st0" d="M337.7,379.2h9.9l-16.9,37.1h-7.8L306,379.2h10.2l10.7,24.9L337.7,379.2z"/>
		<path class="st0" d="M3.3,441.8h15.2c4.1,0,7.6,0.7,10.6,2.2c3,1.5,5.3,3.6,6.8,6.4c1.6,2.8,2.4,6.1,2.4,9.9c0,3.9-0.8,7.2-2.3,10
			c-1.6,2.8-3.8,4.9-6.8,6.4s-6.5,2.2-10.7,2.2H3.3V441.8z M17.8,471.1c3.6,0,6.3-0.9,8.1-2.7c1.8-1.8,2.7-4.5,2.7-8.1
			c0-7.1-3.6-10.7-10.8-10.7h-4.7v21.5H17.8z"/>
		<path class="st0" d="M71.3,478.9l-3.3-7.7H51.5l-3.3,7.7h-9.8l17.4-37.1h7.7L81,478.9H71.3z M54.7,463.9h10.1l-5.1-11.7
			L54.7,463.9z"/>
		<path class="st0" d="M112.9,441.8l-15.7,23v14.2h-9.9v-14.2l-15.6-22.9h11.1l9.4,14.8l9.5-14.8H112.9z"/>
		<path class="st0" d="M117,478.3c-2.7-0.7-4.9-1.7-6.6-3l3.1-6.9c1.8,1.1,3.7,2,5.8,2.6c2,0.6,4.1,0.9,6.1,0.9
			c2.1,0,3.7-0.3,4.8-0.9c1.1-0.6,1.7-1.4,1.7-2.4c0-0.9-0.5-1.7-1.5-2.3c-1-0.6-2.9-1.2-5.7-1.8c-3.5-0.7-6.2-1.6-8.2-2.6
			c-1.9-1-3.3-2.2-4.1-3.6c-0.8-1.4-1.2-3.1-1.2-5.1c0-2.3,0.6-4.3,1.9-6.1c1.3-1.8,3.1-3.3,5.4-4.3c2.3-1,5-1.5,8-1.5
			c2.7,0,5.3,0.4,7.8,1.1c2.5,0.7,4.5,1.7,5.9,2.9l-3,6.9c-1.6-1.1-3.4-2-5.2-2.6c-1.8-0.6-3.6-0.9-5.4-0.9c-1.8,0-3.2,0.3-4.3,1
			c-1.1,0.7-1.6,1.6-1.6,2.7c0,0.6,0.2,1.1,0.6,1.6c0.4,0.4,1.1,0.8,2.1,1.2c1,0.4,2.6,0.8,4.7,1.3c3.4,0.7,6,1.6,8,2.6
			c1.9,1,3.3,2.2,4.1,3.6c0.8,1.4,1.2,3,1.2,4.9c0,3.6-1.4,6.5-4.2,8.5c-2.8,2.1-6.8,3.1-11.9,3.1C122.5,479.4,119.7,479,117,478.3z
			"/>
		<path class="st0" d="M161.7,478.9v-37.1h4.3v33.5h18.6v3.7H161.7z"/>
		<path class="st0" d="M190.1,478.9v-37.1h4.3v37.1H190.1z"/>
		<path class="st0" d="M201.5,474.6l1.6-3.3c1.8,1.6,3.7,2.7,5.6,3.3c1.9,0.7,4.1,1,6.7,1c3,0,5.3-0.6,6.9-1.7
			c1.6-1.2,2.4-2.8,2.4-4.9c0-1.3-0.4-2.3-1.2-3.1c-0.8-0.8-1.8-1.4-3.1-1.9c-1.3-0.5-3-0.9-5.1-1.4c-2.9-0.6-5.2-1.3-7-2
			c-1.8-0.7-3.3-1.8-4.5-3.2c-1.1-1.4-1.7-3.2-1.7-5.4c0-2.1,0.6-4,1.7-5.6c1.1-1.6,2.7-2.9,4.7-3.8c2-0.9,4.4-1.4,7.1-1.4
			c2.6,0,5,0.4,7.2,1.2c2.2,0.8,4.1,2,5.6,3.5l-1.7,3.3c-1.7-1.5-3.5-2.6-5.3-3.3c-1.8-0.7-3.7-1-5.9-1c-2.9,0-5.1,0.6-6.8,1.9
			c-1.6,1.2-2.5,2.9-2.5,5.1c0,1.9,0.7,3.3,2.1,4.2c1.4,0.9,3.6,1.8,6.6,2.5c3.2,0.8,5.7,1.5,7.5,2.1s3.3,1.6,4.6,2.9
			c1.2,1.3,1.8,3,1.8,5.2c0,2.1-0.6,3.9-1.7,5.5c-1.1,1.6-2.7,2.8-4.8,3.7s-4.5,1.3-7.3,1.3C209.6,479.3,205,477.8,201.5,474.6z"/>
		<path class="st0" d="M262.1,463c1.2,1.5,1.8,3.5,1.8,5.8c0,3.2-1.1,5.7-3.2,7.5c-2.2,1.8-5.2,2.6-9.1,2.6h-15.4v-37.1H251
			c3.8,0,6.7,0.8,8.8,2.5c2.1,1.7,3.2,4.1,3.2,7.2c0,2-0.5,3.7-1.5,5.1c-1,1.4-2.5,2.5-4.3,3.2C259.3,460.4,261,461.5,262.1,463z
			 M240.3,458.2h10c2.8,0,4.9-0.6,6.3-1.7c1.4-1.1,2.1-2.7,2.1-4.9c0-4.2-2.8-6.4-8.5-6.4h-10V458.2z M257.6,473.7
			c1.4-1.1,2.1-2.8,2.1-5c0-4.6-2.8-6.8-8.5-6.8h-10.9v13.5h10.9C254.1,475.4,256.2,474.8,257.6,473.7z"/>
		<path class="st0" d="M278.2,477c-2.5-1.5-4.5-3.7-5.9-6.6c-1.4-2.9-2.1-6.2-2.1-10.1c0-3.9,0.7-7.3,2-10.1s3.3-5,5.8-6.6
			c2.5-1.5,5.5-2.3,9-2.3c3.5,0,6.5,0.8,9,2.3c2.5,1.5,4.5,3.7,5.8,6.6s2,6.2,2,10.1c0,3.9-0.7,7.3-2.1,10.1s-3.3,5.1-5.9,6.6
			c-2.5,1.5-5.5,2.3-9,2.3C283.7,479.3,280.7,478.6,278.2,477z M296.4,471.7c2.2-2.7,3.3-6.5,3.3-11.4c0-4.9-1.1-8.7-3.3-11.3
			c-2.2-2.6-5.2-4-9.2-4s-7,1.3-9.2,4c-2.2,2.7-3.3,6.4-3.3,11.3c0,4.9,1.1,8.7,3.3,11.4c2.2,2.7,5.3,4,9.2,4
			C291.1,475.7,294.2,474.3,296.4,471.7z"/>
		<path class="st0" d="M337.6,441.8h4.1v37.1h-3.3L315.9,449v29.9h-4v-37.1h3.3l22.4,29.9V441.8z"/>
		<path class="st0" d="M28.2,537.9v3.6H4.3v-3.2l13-14.4c1.7-1.9,3-3.7,3.8-5.3c0.8-1.6,1.2-3.1,1.2-4.7c0-2.1-0.6-3.6-1.8-4.7
			c-1.2-1.1-2.9-1.6-5.1-1.6c-3.5,0-7.1,1.4-10.5,4.3l-1.6-3.3c1.5-1.4,3.3-2.5,5.5-3.3c2.2-0.8,4.5-1.3,6.7-1.3
			c3.4,0,6.1,0.9,8.1,2.6c2,1.8,3,4.1,3,7.1c0,2.1-0.5,4.2-1.4,6.1c-1,2-2.5,4.2-4.8,6.6L9.9,537.9H28.2z"/>
		<path class="st0" d="M37.3,537.1c-2.2-3.2-3.3-7.9-3.3-14.2s1.1-10.9,3.3-14.2c2.2-3.2,5.4-4.8,9.7-4.8c4.2,0,7.5,1.6,9.7,4.8
			c2.2,3.2,3.3,7.9,3.3,14.1c0,6.2-1.1,11-3.3,14.2c-2.2,3.2-5.4,4.9-9.7,4.9C42.7,541.9,39.5,540.3,37.3,537.1z M53.5,534.6
			c1.4-2.5,2.1-6.4,2.1-11.7c0-5.3-0.7-9.1-2.1-11.6c-1.4-2.5-3.6-3.7-6.6-3.7c-3,0-5.1,1.2-6.5,3.7c-1.4,2.5-2.1,6.3-2.1,11.6
			c0,5.3,0.7,9.1,2.1,11.7c1.4,2.5,3.6,3.8,6.5,3.8C49.9,538.3,52.1,537.1,53.5,534.6z"/>
		<path class="st0" d="M81.8,537.9H90v3.6H69.3v-3.6h8.2v-28.2l-7.6,4.9v-4.1l9.5-6.1h2.5V537.9z"/>
		<path class="st0" d="M120.8,525.8c1.3,1.6,2,3.6,2,5.8c0,3.2-1.2,5.7-3.6,7.5c-2.4,1.8-5.6,2.7-9.7,2.7c-4.1,0-7.3-0.9-9.7-2.7
			c-2.4-1.8-3.6-4.3-3.6-7.5c0-2.3,0.7-4.2,2.1-5.8c1.4-1.6,3.3-2.8,5.7-3.4c-2.2-0.7-3.9-1.7-5.1-3.3c-1.2-1.5-1.8-3.3-1.8-5.3
			c0-2,0.5-3.7,1.6-5.2c1-1.5,2.5-2.6,4.4-3.4c1.9-0.8,4.1-1.2,6.5-1.2c2.4,0,4.6,0.4,6.5,1.2c1.9,0.8,3.4,2,4.4,3.4
			c1,1.5,1.6,3.2,1.6,5.2c0,2.1-0.6,3.8-1.8,5.3c-1.2,1.5-2.9,2.6-5,3.3C117.6,523.1,119.5,524.2,120.8,525.8z M116.3,536.5
			c1.6-1.2,2.3-2.9,2.3-5.2c0-2.1-0.8-3.7-2.5-4.9c-1.7-1.2-3.9-2-6.6-2.3c-2.7,0.3-4.9,1-6.6,2.3c-1.7,1.2-2.5,2.9-2.5,4.9
			c0,2.3,0.8,4,2.3,5.2c1.6,1.2,3.8,1.8,6.7,1.8S114.7,537.7,116.3,536.5z M103.6,518.9c1.5,1.2,3.5,2,6,2.3c2.5-0.3,4.5-1,6-2.3
			c1.5-1.2,2.2-2.8,2.2-4.8c0-2.1-0.7-3.7-2.2-4.9c-1.4-1.2-3.5-1.8-6-1.8c-2.6,0-4.6,0.6-6,1.8c-1.4,1.2-2.2,2.8-2.2,4.9
			C101.4,516.1,102.1,517.7,103.6,518.9z"/>
	</g>
	<g>
		<g>
			<path class="st0" d="M173.8,98.5c7.9,14,17.5,24,27.5,34.4c6.3,6.6,12.9,13.5,19.3,21.7l0,0l0,0c9.3,11.5,14,26,13.2,40.8
				c-0.7,14.9-7,29-17.6,39.5c-11.4,11.4-26.5,17.6-42.6,17.6c-16.1,0-31.2-6.3-42.6-17.6c-10.6-10.6-16.8-24.6-17.6-39.5
				c-0.7-14.8,4-29.3,13.2-40.8l0,0l0,0c6.5-8.2,13-15.1,19.3-21.7C156.3,122.4,165.9,112.4,173.8,98.5 M173.8,79.6
				c-12.2,32.1-32.7,44-53.1,70.1c-21.6,26.8-20,66.1,4.9,91c13.3,13.3,30.8,20,48.2,20c17.4,0,34.9-6.7,48.2-20
				c24.9-24.9,26.5-64.2,4.9-91C206.4,123.7,186,111.7,173.8,79.6L173.8,79.6z"/>
			<path class="st0" d="M173.8,240.7c-12.9,0-25-5-34.1-14.1c-17.5-17.5-19-45.1-3.5-64.3l0.2-0.2c6.1-7.8,12.5-14.4,18.6-20.8
				c6.3-6.6,12.8-13.4,18.8-21.2c6,7.8,12.5,14.6,18.8,21.2c6.1,6.4,12.5,13,18.6,20.8l0.2,0.2c15.5,19.2,14,46.8-3.5,64.3
				C198.8,235.6,186.6,240.7,173.8,240.7z"/>
		</g>
		<g>
			<polygon class="st0" points="23.2,129 25.6,131.3 28.9,131.3 50.4,131.3 50.4,152.9 50.4,156.2 52.8,158.5 68,173.8 52.8,189 
				50.4,191.4 50.4,194.7 50.4,216.2 28.9,216.2 25.6,216.2 23.2,218.6 8,233.8 8,245.1 28.9,224.2 58.4,224.2 58.4,194.7 
				79.3,173.8 58.4,152.9 58.4,123.3 28.9,123.3 8,102.4 8,113.7 			"/>
			<polygon class="st0" points="324.3,218.6 322,216.2 318.6,216.2 297.1,216.2 297.1,194.7 297.1,191.4 294.7,189 279.5,173.8 
				294.7,158.5 297.1,156.2 297.1,152.9 297.1,131.3 318.6,131.3 322,131.3 324.3,129 339.5,113.7 339.5,102.4 318.6,123.3 
				289.1,123.3 289.1,152.9 268.2,173.8 289.1,194.7 289.1,224.2 318.6,224.2 339.5,245.1 339.5,233.8 			"/>
			<polygon class="st0" points="224.2,289.1 194.7,289.1 173.8,268.2 152.9,289.1 123.3,289.1 123.3,318.6 102.4,339.5 113.7,339.5 
				129,324.3 131.3,322 131.3,318.6 131.3,297.1 152.9,297.1 156.2,297.1 158.5,294.7 173.8,279.5 189,294.7 191.4,297.1 
				194.7,297.1 216.2,297.1 216.2,318.6 216.2,322 218.6,324.3 233.8,339.5 245.1,339.5 224.2,318.6 			"/>
			<polygon class="st0" points="123.3,58.4 152.9,58.4 173.8,79.3 194.7,58.4 224.2,58.4 224.2,28.9 245.1,8 233.8,8 218.6,23.2 
				216.2,25.6 216.2,28.9 216.2,50.4 194.7,50.4 191.4,50.4 189,52.8 173.8,68 158.5,52.8 156.2,50.4 152.9,50.4 131.3,50.4 
				131.3,28.9 131.3,25.6 129,23.2 113.7,8 102.4,8 123.3,28.9 			"/>
		</g>
		<path class="st0" d="M339.5,8v331.6H8V8H339.5 M347.5,0h-8H8H0v8v331.6v8h8h331.6h8v-8V8V0L347.5,0z"/>
		<g>
			<path class="st0" d="M272.2,28.1c-1.9,5.1-5.2,7-8.4,11.1c-3.4,4.2-3.2,10.5,0.8,14.4c2.1,2.1,4.9,3.2,7.6,3.2
				c2.8,0,5.5-1.1,7.6-3.2c3.9-3.9,4.2-10.2,0.8-14.4C277.4,35.1,274.1,33.2,272.2,28.1L272.2,28.1z"/>
		</g>
		<g>
			<path class="st0" d="M272.2,122.8c1.9-5.1,5.2-7,8.4-11.1c3.4-4.2,3.2-10.5-0.8-14.4c-2.1-2.1-4.9-3.2-7.6-3.2
				c-2.8,0-5.5,1.1-7.6,3.2c-3.9,3.9-4.2,10.2-0.8,14.4C267,115.9,270.3,117.7,272.2,122.8L272.2,122.8z"/>
		</g>
		<g>
			<path class="st0" d="M224.8,75.5c5.1,1.9,7,5.2,11.1,8.4c4.2,3.4,10.5,3.2,14.4-0.8c2.1-2.1,3.2-4.9,3.2-7.6
				c0-2.8-1.1-5.5-3.2-7.6c-3.9-3.9-10.2-4.2-14.4-0.8C231.8,70.3,229.9,73.5,224.8,75.5L224.8,75.5z"/>
		</g>
		<path class="st0" d="M283.9,87.9c-8.1-4.5-16.2-4.5-24.3,0c4.5-8.1,4.5-16.2,0-24.3c8.1,4.5,16.2,4.5,24.3,0
			C279.4,71.7,279.4,79.8,283.9,87.9z"/>
		<g>
			<path class="st0" d="M319.6,75.5c-5.1-1.9-7-5.2-11.1-8.4c-4.2-3.4-10.5-3.2-14.4,0.8c-2.1,2.1-3.2,4.9-3.2,7.6
				c0,2.8,1.1,5.5,3.2,7.6c3.9,3.9,10.2,4.2,14.4,0.8C312.6,80.6,314.5,77.4,319.6,75.5L319.6,75.5z"/>
		</g>
		<g>
			<path class="st0" d="M272.2,224.1c-1.9,5.1-5.2,7-8.4,11.1c-3.4,4.2-3.2,10.5,0.8,14.4c2.1,2.1,4.9,3.2,7.6,3.2
				c2.8,0,5.5-1.1,7.6-3.2c3.9-3.9,4.2-10.2,0.8-14.4C277.4,231.1,274.1,229.2,272.2,224.1L272.2,224.1z"/>
		</g>
		<g>
			<path class="st0" d="M272.2,318.9c1.9-5.1,5.2-7,8.4-11.1c3.4-4.2,3.2-10.5-0.8-14.4c-2.1-2.1-4.9-3.2-7.6-3.2
				c-2.8,0-5.5,1.1-7.6,3.2c-3.9,3.9-4.2,10.2-0.8,14.4C267,311.9,270.3,313.8,272.2,318.9L272.2,318.9z"/>
		</g>
		<g>
			<path class="st0" d="M224.8,271.5c5.1,1.9,7,5.2,11.1,8.4c4.2,3.4,10.5,3.2,14.4-0.8c2.1-2.1,3.2-4.9,3.2-7.6
				c0-2.8-1.1-5.5-3.2-7.6c-3.9-3.9-10.2-4.2-14.4-0.8C231.8,266.3,229.9,269.6,224.8,271.5L224.8,271.5z"/>
		</g>
		<path class="st0" d="M283.9,283.9c-8.1-4.5-16.2-4.5-24.3,0c4.5-8.1,4.5-16.2,0-24.3c8.1,4.5,16.2,4.5,24.3,0
			C279.4,267.7,279.4,275.8,283.9,283.9z"/>
		<g>
			<path class="st0" d="M319.6,271.5c-5.1-1.9-7-5.2-11.1-8.4c-4.2-3.4-10.5-3.2-14.4,0.8c-2.1,2.1-3.2,4.9-3.2,7.6
				c0,2.8,1.1,5.5,3.2,7.6c3.9,3.9,10.2,4.2,14.4,0.8C312.6,276.7,314.5,273.4,319.6,271.5L319.6,271.5z"/>
		</g>
		<g>
			<path class="st0" d="M75.3,224.1c-1.9,5.1-5.2,7-8.4,11.1c-3.4,4.2-3.2,10.5,0.8,14.4c2.1,2.1,4.9,3.2,7.6,3.2
				c2.8,0,5.5-1.1,7.6-3.2c3.9-3.9,4.2-10.2,0.8-14.4C80.5,231.1,77.3,229.2,75.3,224.1L75.3,224.1z"/>
		</g>
		<g>
			<path class="st0" d="M75.3,318.9c1.9-5.1,5.2-7,8.4-11.1c3.4-4.2,3.2-10.5-0.8-14.4c-2.1-2.1-4.9-3.2-7.6-3.2
				c-2.8,0-5.5,1.1-7.6,3.2c-3.9,3.9-4.2,10.2-0.8,14.4C70.2,311.9,73.4,313.8,75.3,318.9L75.3,318.9z"/>
		</g>
		<g>
			<path class="st0" d="M28,271.5c5.1,1.9,7,5.2,11.1,8.4c4.2,3.4,10.5,3.2,14.4-0.8c2.1-2.1,3.2-4.9,3.2-7.6c0-2.8-1.1-5.5-3.2-7.6
				c-3.9-3.9-10.2-4.2-14.4-0.8C34.9,266.3,33.1,269.6,28,271.5L28,271.5z"/>
		</g>
		<path class="st0" d="M87,283.9c-8.1-4.5-16.2-4.5-24.3,0c4.5-8.1,4.5-16.2,0-24.3c8.1,4.5,16.2,4.5,24.3,0
			C82.6,267.7,82.6,275.8,87,283.9z"/>
		<g>
			<path class="st0" d="M122.7,271.5c-5.1-1.9-7-5.2-11.1-8.4c-4.2-3.4-10.5-3.2-14.4,0.8c-2.1,2.1-3.2,4.9-3.2,7.6
				c0,2.8,1.1,5.5,3.2,7.6c3.9,3.9,10.2,4.2,14.4,0.8C115.7,276.7,117.6,273.4,122.7,271.5L122.7,271.5z"/>
		</g>
		<g>
			<g>
				<path class="st0" d="M75.3,28.3c-1.9,5.1-5.2,7-8.4,11.1c-3.4,4.2-3.2,10.5,0.8,14.4c2.1,2.1,4.9,3.2,7.6,3.2
					c2.8,0,5.5-1.1,7.6-3.2c3.9-3.9,4.2-10.2,0.8-14.4C80.5,35.3,77.3,33.4,75.3,28.3L75.3,28.3z"/>
			</g>
			<g>
				<path class="st0" d="M75.3,123.1c1.9-5.1,5.2-7,8.4-11.1c3.4-4.2,3.2-10.5-0.8-14.4c-2.1-2.1-4.9-3.2-7.6-3.2
					c-2.8,0-5.5,1.1-7.6,3.2c-3.9,3.9-4.2,10.2-0.8,14.4C70.2,116.1,73.4,118,75.3,123.1L75.3,123.1z"/>
			</g>
			<g>
				<path class="st0" d="M28,75.7c5.1,1.9,7,5.2,11.1,8.4c4.2,3.4,10.5,3.2,14.4-0.8c2.1-2.1,3.2-4.9,3.2-7.6c0-2.8-1.1-5.5-3.2-7.6
					c-3.9-3.9-10.2-4.2-14.4-0.8C34.9,70.6,33.1,73.8,28,75.7L28,75.7z"/>
			</g>
			<path class="st0" d="M87,88.1c-8.1-4.5-16.2-4.5-24.3,0c4.5-8.1,4.5-16.2,0-24.3c8.1,4.5,16.2,4.5,24.3,0
				C82.6,71.9,82.6,80,87,88.1z"/>
			<g>
				<path class="st0" d="M122.7,75.7c-5.1-1.9-7-5.2-11.1-8.4c-4.2-3.4-10.5-3.2-14.4,0.8c-2.1,2.1-3.2,4.9-3.2,7.6
					c0,2.8,1.1,5.5,3.2,7.6c3.9,3.9,10.2,4.2,14.4,0.8C115.7,80.9,117.6,77.7,122.7,75.7L122.7,75.7z"/>
			</g>
		</g>
		<g>
			<polygon class="st0" points="204.2,326.9 204.2,309.1 186.4,309.1 173.8,296.4 161.1,309.1 143.3,309.1 143.3,326.9 130.7,339.5 
				142,339.5 148.9,332.6 151.3,330.2 151.3,326.9 151.3,317.1 161.1,317.1 164.5,317.1 166.8,314.7 173.8,307.7 180.7,314.7 
				183.1,317.1 186.4,317.1 196.3,317.1 196.3,326.9 196.3,330.2 198.6,332.6 205.6,339.5 216.9,339.5 			"/>
			<polygon class="st0" points="38.4,204.2 38.4,186.4 51,173.8 38.4,161.1 38.4,143.3 20.5,143.3 8,130.8 8,142.1 14.9,148.9 
				17.2,151.3 20.5,151.3 30.4,151.3 30.4,161.1 30.4,164.5 32.7,166.8 39.7,173.8 32.7,180.7 30.4,183.1 30.4,186.4 30.4,196.3 
				20.5,196.3 17.2,196.3 14.9,198.6 8,205.5 8,216.8 20.5,204.2 			"/>
			<polygon class="st0" points="339.5,205.5 339.5,205.6 332.5,198.6 330.1,196.3 326.8,196.3 317,196.3 317,186.4 317,183.1 
				314.6,180.7 307.6,173.8 314.6,166.8 317,164.5 317,161.1 317,151.3 326.8,151.3 330.1,151.3 332.5,148.9 339.5,142 339.5,142.1 
				339.5,130.8 339.5,130.7 326.8,143.3 309,143.3 309,161.1 296.4,173.8 309,186.4 309,204.2 326.8,204.2 339.5,216.9 339.5,216.8 
							"/>
			<polygon class="st0" points="143.3,38.5 161.1,38.5 173.8,51.1 186.4,38.5 204.2,38.5 204.2,20.6 216.9,8 205.6,8 198.6,15 
				196.3,17.3 196.3,20.6 196.3,30.5 186.4,30.5 183.1,30.5 180.7,32.8 173.8,39.8 166.8,32.8 164.5,30.5 161.1,30.5 151.3,30.5 
				151.3,20.6 151.3,17.3 148.9,15 142,8 130.7,8 143.3,20.6 			"/>
		</g>
	</g>
</g>
</svg>
