<?xml version="1.0" encoding="utf-8"?>
<!-- Generator: Adobe Illustrator 21.0.0, SVG Export Plug-In . SVG Version: 6.00 Build 0)  -->
<svg version="1.1" id="Layer_1" xmlns="http://www.w3.org/2000/svg" xmlns:xlink="http://www.w3.org/1999/xlink" x="0px" y="0px"
	 width="141.8px" height="221.1px" viewBox="0 0 141.8 221.1" style="enable-background:new 0 0 141.8 221.1;" xml:space="preserve"
	>
<style type="text/css">
	.st0{fill:#5776B7;}
</style>
<g>
	<g>
		<path class="st0" d="M1.4,154.7h6.2c1.7,0,3.1,0.3,4.3,0.9c1.2,0.6,2.1,1.5,2.8,2.6c0.6,1.1,1,2.5,1,4c0,1.6-0.3,2.9-1,4.1
			s-1.6,2-2.8,2.6c-1.2,0.6-2.7,0.9-4.4,0.9H1.4V154.7z M7.3,166.7c1.5,0,2.6-0.4,3.3-1.1c0.7-0.7,1.1-1.8,1.1-3.3
			c0-2.9-1.5-4.4-4.4-4.4H5.4v8.8H7.3z"/>
		<path class="st0" d="M31.2,169.9h-4.2l-2-5c-0.2-0.6-0.8-0.9-1.6-0.9h-1.4v5.9H18v-15.2h7c1.8,0,3.2,0.4,4.1,1.2
			c0.9,0.8,1.4,1.9,1.4,3.4c0,1-0.3,1.9-0.8,2.7c-0.5,0.7-1.3,1.3-2.3,1.6c0.4,0.1,0.8,0.3,1.1,0.6s0.6,0.7,0.8,1.3L31.2,169.9z
			 M26.2,160.6c0.4-0.3,0.6-0.7,0.6-1.2c0-0.6-0.2-1-0.6-1.3s-1-0.4-1.9-0.4h-2.5v3.3h2.5C25.2,161,25.9,160.9,26.2,160.6z"/>
		<path class="st0" d="M34.8,168.4c-1.1-1.1-1.7-2.8-1.7-4.9v-8.8H37v8.9c0,1.1,0.2,1.9,0.7,2.5s1.2,0.9,2.1,0.9
			c0.9,0,1.6-0.3,2.1-0.9c0.5-0.6,0.7-1.4,0.7-2.5v-8.9h3.9v8.8c0,2.1-0.6,3.8-1.7,4.9c-1.2,1.1-2.8,1.7-5,1.7
			C37.6,170.1,36,169.5,34.8,168.4z"/>
		<path class="st0" d="M49.2,154.7h7.2c1.7,0,3.1,0.4,4,1.2s1.4,2,1.4,3.4c0,1.4-0.5,2.5-1.4,3.4c-1,0.8-2.3,1.3-4,1.3h-3.2v5.9h-4
			V154.7z M55.9,161c1.5,0,2.3-0.5,2.3-1.6c0-0.5-0.2-0.9-0.5-1.2c-0.4-0.3-0.9-0.4-1.7-0.4h-2.7v3.2H55.9z"/>
		<path class="st0" d="M73.7,169.9l-1.3-3.1h-6.7l-1.3,3.1h-4l7.1-15.2h3.2l7.1,15.2H73.7z M67,163.8h4.1L69,159L67,163.8z"/>
		<path class="st0" d="M78.5,169.9v-15.2h4v11.9h6.4v3.2H78.5z"/>
		<path class="st0" d="M97,154.7h6.2c1.7,0,3.1,0.3,4.3,0.9c1.2,0.6,2.1,1.5,2.8,2.6c0.6,1.1,1,2.5,1,4c0,1.6-0.3,2.9-1,4.1
			s-1.6,2-2.8,2.6c-1.2,0.6-2.7,0.9-4.4,0.9H97V154.7z M103,166.7c1.5,0,2.6-0.4,3.3-1.1c0.7-0.7,1.1-1.8,1.1-3.3
			c0-2.9-1.5-4.4-4.4-4.4H101v8.8H103z"/>
		<path class="st0" d="M113.7,169.9v-15.2h10.8v3.1h-6.9v2.9h6.5v3.1h-6.5v3.1h6.9v3.1H113.7z"/>
		<path class="st0" d="M137.8,154.7h4l-6.9,15.2h-3.2l-6.9-15.2h4.2l4.4,10.2L137.8,154.7z"/>
		<path class="st0" d="M1.4,180.3h6.2c1.7,0,3.1,0.3,4.3,0.9c1.2,0.6,2.1,1.5,2.8,2.6c0.6,1.1,1,2.5,1,4c0,1.6-0.3,2.9-1,4.1
			c-0.6,1.1-1.6,2-2.8,2.6c-1.2,0.6-2.7,0.9-4.4,0.9H1.4V180.3z M7.3,192.2c1.5,0,2.6-0.4,3.3-1.1c0.7-0.7,1.1-1.8,1.1-3.3
			c0-2.9-1.5-4.4-4.4-4.4H5.4v8.8H7.3z"/>
		<path class="st0" d="M29.1,195.4l-1.3-3.1H21l-1.3,3.1h-4l7.1-15.2h3.2l7.1,15.2H29.1z M22.3,189.3h4.1l-2.1-4.8L22.3,189.3z"/>
		<path class="st0" d="M46.1,180.3l-6.4,9.4v5.8h-4v-5.8l-6.4-9.3h4.5l3.8,6l3.9-6H46.1z"/>
		<path class="st0" d="M47.7,195.2c-1.1-0.3-2-0.7-2.7-1.2l1.3-2.8c0.7,0.5,1.5,0.8,2.4,1.1c0.8,0.2,1.7,0.4,2.5,0.4
			c0.9,0,1.5-0.1,2-0.4s0.7-0.6,0.7-1c0-0.4-0.2-0.7-0.6-0.9c-0.4-0.2-1.2-0.5-2.3-0.7c-1.4-0.3-2.5-0.6-3.3-1.1
			c-0.8-0.4-1.4-0.9-1.7-1.5s-0.5-1.3-0.5-2.1c0-0.9,0.3-1.8,0.8-2.5c0.5-0.7,1.3-1.3,2.2-1.7s2-0.6,3.3-0.6c1.1,0,2.2,0.2,3.2,0.5
			c1,0.3,1.8,0.7,2.4,1.2l-1.2,2.8c-0.7-0.5-1.4-0.8-2.1-1.1s-1.5-0.4-2.2-0.4c-0.7,0-1.3,0.1-1.7,0.4c-0.4,0.3-0.7,0.6-0.7,1.1
			c0,0.3,0.1,0.5,0.2,0.6s0.4,0.3,0.9,0.5c0.4,0.2,1.1,0.3,1.9,0.5c1.4,0.3,2.5,0.7,3.2,1.1c0.8,0.4,1.3,0.9,1.7,1.5
			c0.3,0.6,0.5,1.2,0.5,2c0,1.5-0.6,2.6-1.7,3.5c-1.1,0.8-2.8,1.3-4.9,1.3C50,195.6,48.9,195.5,47.7,195.2z"/>
		<path class="st0" d="M66,195.4v-15.2h1.7v13.7h7.6v1.5H66z"/>
		<path class="st0" d="M77.6,195.4v-15.2h1.7v15.2H77.6z"/>
		<path class="st0" d="M82.2,193.7l0.7-1.3c0.8,0.6,1.5,1.1,2.3,1.4c0.8,0.3,1.7,0.4,2.7,0.4c1.2,0,2.2-0.2,2.8-0.7
			c0.7-0.5,1-1.1,1-2c0-0.5-0.2-0.9-0.5-1.2c-0.3-0.3-0.7-0.6-1.3-0.8c-0.5-0.2-1.2-0.4-2.1-0.6c-1.2-0.3-2.1-0.5-2.9-0.8
			c-0.8-0.3-1.4-0.7-1.8-1.3c-0.5-0.6-0.7-1.3-0.7-2.2c0-0.9,0.2-1.6,0.7-2.3c0.5-0.7,1.1-1.2,1.9-1.5c0.8-0.4,1.8-0.6,2.9-0.6
			c1,0,2,0.2,2.9,0.5s1.7,0.8,2.3,1.4l-0.7,1.3c-0.7-0.6-1.4-1.1-2.2-1.3c-0.7-0.3-1.5-0.4-2.4-0.4c-1.2,0-2.1,0.3-2.8,0.8
			c-0.7,0.5-1,1.2-1,2.1c0,0.8,0.3,1.3,0.9,1.7s1.5,0.7,2.7,1c1.3,0.3,2.3,0.6,3.1,0.9c0.7,0.3,1.4,0.7,1.9,1.2
			c0.5,0.5,0.7,1.2,0.7,2.1c0,0.9-0.2,1.6-0.7,2.2c-0.5,0.6-1.1,1.1-1.9,1.5s-1.8,0.5-3,0.5C85.5,195.6,83.6,195,82.2,193.7z"/>
		<path class="st0" d="M107,188.9c0.5,0.6,0.7,1.4,0.7,2.4c0,1.3-0.4,2.3-1.3,3.1c-0.9,0.7-2.1,1.1-3.7,1.1h-6.3v-15.2h6.1
			c1.5,0,2.7,0.3,3.6,1c0.9,0.7,1.3,1.7,1.3,2.9c0,0.8-0.2,1.5-0.6,2.1c-0.4,0.6-1,1-1.8,1.3C105.8,187.9,106.5,188.3,107,188.9z
			 M98.1,187h4.1c1.1,0,2-0.2,2.6-0.7c0.6-0.5,0.9-1.1,0.9-2c0-1.7-1.1-2.6-3.4-2.6h-4.1V187z M105.1,193.3c0.6-0.4,0.8-1.1,0.8-2.1
			c0-1.9-1.2-2.8-3.5-2.8h-4.4v5.5h4.4C103.7,194,104.6,193.8,105.1,193.3z"/>
		<path class="st0" d="M113.5,194.7c-1-0.6-1.8-1.5-2.4-2.7c-0.6-1.2-0.8-2.5-0.8-4.1c0-1.6,0.3-3,0.8-4.1c0.6-1.2,1.3-2.1,2.4-2.7
			c1-0.6,2.3-0.9,3.7-0.9c1.4,0,2.6,0.3,3.7,0.9s1.8,1.5,2.4,2.7c0.6,1.2,0.8,2.5,0.8,4.1c0,1.6-0.3,3-0.8,4.1s-1.4,2.1-2.4,2.7
			c-1,0.6-2.3,0.9-3.7,0.9S114.6,195.3,113.5,194.7z M120.9,192.5c0.9-1.1,1.3-2.6,1.3-4.6s-0.4-3.5-1.3-4.6
			c-0.9-1.1-2.1-1.6-3.8-1.6s-2.9,0.5-3.8,1.6c-0.9,1.1-1.3,2.6-1.3,4.6c0,2,0.4,3.5,1.3,4.6c0.9,1.1,2.2,1.6,3.8,1.6
			C118.8,194.1,120,193.6,120.9,192.5z"/>
		<path class="st0" d="M137.8,180.3h1.7v15.2h-1.4l-9.2-12.2v12.2h-1.6v-15.2h1.3l9.2,12.2V180.3z"/>
		<path class="st0" d="M11.5,219.5v1.5H1.8v-1.3l5.3-5.9c0.7-0.8,1.2-1.5,1.6-2.2c0.3-0.6,0.5-1.3,0.5-1.9c0-0.8-0.2-1.5-0.7-1.9
			s-1.2-0.7-2.1-0.7c-1.4,0-2.9,0.6-4.3,1.7l-0.7-1.3c0.6-0.6,1.3-1,2.3-1.4c0.9-0.3,1.8-0.5,2.7-0.5c1.4,0,2.5,0.4,3.3,1.1
			c0.8,0.7,1.2,1.7,1.2,2.9c0,0.9-0.2,1.7-0.6,2.5c-0.4,0.8-1,1.7-1.9,2.7L4,219.5H11.5z"/>
		<path class="st0" d="M15.2,219.2c-0.9-1.3-1.4-3.2-1.4-5.8s0.5-4.5,1.4-5.8s2.2-2,3.9-2s3,0.7,3.9,2s1.4,3.2,1.4,5.8
			c0,2.5-0.5,4.5-1.4,5.8s-2.2,2-3.9,2S16.1,220.5,15.2,219.2z M21.8,218.1c0.6-1,0.9-2.6,0.9-4.8c0-2.1-0.3-3.7-0.9-4.7
			c-0.6-1-1.5-1.5-2.7-1.5c-1.2,0-2.1,0.5-2.7,1.5c-0.6,1-0.9,2.6-0.9,4.7s0.3,3.7,0.9,4.8c0.6,1,1.5,1.5,2.7,1.5
			S21.3,219.2,21.8,218.1z"/>
		<path class="st0" d="M33.4,219.5h3.3v1.5h-8.5v-1.5h3.3V208l-3.1,2v-1.7l3.9-2.5h1V219.5z"/>
		<path class="st0" d="M49.3,214.6c0.5,0.7,0.8,1.5,0.8,2.4c0,1.3-0.5,2.3-1.5,3.1c-1,0.7-2.3,1.1-4,1.1s-3-0.4-4-1.1
			c-1-0.7-1.5-1.8-1.5-3.1c0-0.9,0.3-1.7,0.8-2.4c0.6-0.7,1.3-1.1,2.3-1.4c-0.9-0.3-1.6-0.7-2.1-1.3s-0.7-1.3-0.7-2.2
			c0-0.8,0.2-1.5,0.6-2.1s1-1.1,1.8-1.4c0.8-0.3,1.7-0.5,2.7-0.5s1.9,0.2,2.7,0.5c0.8,0.3,1.4,0.8,1.8,1.4s0.6,1.3,0.6,2.1
			c0,0.8-0.2,1.6-0.7,2.2s-1.2,1.1-2.1,1.3C48,213.5,48.8,213.9,49.3,214.6z M47.5,219c0.6-0.5,1-1.2,1-2.1c0-0.8-0.3-1.5-1-2
			c-0.7-0.5-1.6-0.8-2.7-0.9c-1.1,0.1-2,0.4-2.7,0.9c-0.7,0.5-1,1.2-1,2c0,0.9,0.3,1.6,1,2.1s1.6,0.7,2.7,0.7S46.8,219.4,47.5,219z
			 M42.3,211.8c0.6,0.5,1.4,0.8,2.4,0.9c1-0.1,1.8-0.4,2.4-0.9s0.9-1.2,0.9-2c0-0.8-0.3-1.5-0.9-2s-1.4-0.7-2.5-0.7
			c-1.1,0-1.9,0.2-2.5,0.7s-0.9,1.1-0.9,2C41.4,210.6,41.7,211.3,42.3,211.8z"/>
	</g>
	<g>
		<g>
			<path class="st0" d="M70.9,40.2c3.2,5.7,7.1,9.8,11.2,14.1c2.6,2.7,5.3,5.5,7.9,8.8l0,0l0,0c3.8,4.7,5.7,10.6,5.4,16.6
				c-0.3,6.1-2.8,11.8-7.2,16.1c-4.6,4.6-10.8,7.2-17.4,7.2c-6.6,0-12.7-2.6-17.4-7.2c-4.3-4.3-6.9-10-7.2-16.1
				c-0.3-6,1.6-12,5.4-16.6l0,0l0,0c2.6-3.4,5.3-6.2,7.9-8.9C63.8,50,67.7,45.9,70.9,40.2 M70.9,32.5c-5,13.1-13.3,18-21.7,28.6
				c-8.8,10.9-8.2,27,2,37.1c5.4,5.4,12.6,8.1,19.7,8.1c7.1,0,14.2-2.7,19.7-8.1c10.2-10.2,10.8-26.2,2-37.1
				C84.2,50.5,75.9,45.6,70.9,32.5L70.9,32.5z"/>
			<path class="st0" d="M70.9,98.2c-5.3,0-10.2-2-13.9-5.8c-7.1-7.1-7.7-18.4-1.4-26.2l0.1-0.1c2.5-3.2,5.1-5.9,7.6-8.5
				c2.6-2.7,5.2-5.4,7.7-8.6c2.5,3.2,5.1,5.9,7.7,8.6c2.5,2.6,5.1,5.3,7.6,8.5l0.1,0.1c6.3,7.8,5.7,19.1-1.4,26.2
				C81.1,96.2,76.2,98.2,70.9,98.2z"/>
		</g>
		<g>
			<polygon class="st0" points="9.5,52.6 10.4,53.6 11.8,53.6 20.6,53.6 20.6,62.4 20.6,63.7 21.5,64.7 27.8,70.9 21.5,77.1 
				20.6,78.1 20.6,79.4 20.6,88.2 11.8,88.2 10.4,88.2 9.5,89.2 3.3,95.4 3.3,100 11.8,91.5 23.8,91.5 23.8,79.4 32.4,70.9 
				23.8,62.4 23.8,50.3 11.8,50.3 3.3,41.8 3.3,46.4 			"/>
			<polygon class="st0" points="132.3,89.2 131.4,88.2 130,88.2 121.2,88.2 121.2,79.4 121.2,78.1 120.3,77.1 114.1,70.9 
				120.3,64.7 121.2,63.7 121.2,62.4 121.2,53.6 130,53.6 131.4,53.6 132.3,52.6 138.6,46.4 138.6,41.8 130,50.3 118,50.3 118,62.4 
				109.4,70.9 118,79.4 118,91.5 130,91.5 138.6,100 138.6,95.4 			"/>
			<polygon class="st0" points="91.5,118 79.4,118 70.9,109.4 62.4,118 50.3,118 50.3,130 41.8,138.6 46.4,138.6 52.6,132.3 
				53.6,131.4 53.6,130 53.6,121.2 62.4,121.2 63.7,121.2 64.7,120.3 70.9,114.1 77.1,120.3 78.1,121.2 79.4,121.2 88.2,121.2 
				88.2,130 88.2,131.4 89.2,132.3 95.4,138.6 100,138.6 91.5,130 			"/>
			<polygon class="st0" points="50.3,23.8 62.4,23.8 70.9,32.4 79.4,23.8 91.5,23.8 91.5,11.8 100,3.3 95.4,3.3 89.2,9.5 88.2,10.4 
				88.2,11.8 88.2,20.6 79.4,20.6 78.1,20.6 77.1,21.5 70.9,27.8 64.7,21.5 63.7,20.6 62.4,20.6 53.6,20.6 53.6,11.8 53.6,10.4 
				52.6,9.5 46.4,3.3 41.8,3.3 50.3,11.8 			"/>
		</g>
		<path class="st0" d="M138.6,3.3v135.3H3.3V3.3H138.6 M141.8,0h-3.3H3.3H0v3.3v135.3v3.3h3.3h135.3h3.3v-3.3V3.3V0L141.8,0z"/>
		<g>
			<path class="st0" d="M111.1,11.5c-0.8,2.1-2.1,2.8-3.4,4.5c-1.4,1.7-1.3,4.3,0.3,5.9c0.9,0.9,2,1.3,3.1,1.3
				c1.1,0,2.3-0.4,3.1-1.3c1.6-1.6,1.7-4.1,0.3-5.9C113.2,14.3,111.9,13.5,111.1,11.5L111.1,11.5z"/>
		</g>
		<g>
			<path class="st0" d="M111.1,50.1c0.8-2.1,2.1-2.8,3.4-4.5c1.4-1.7,1.3-4.3-0.3-5.9c-0.9-0.9-2-1.3-3.1-1.3
				c-1.1,0-2.3,0.4-3.1,1.3c-1.6,1.6-1.7,4.1-0.3,5.9C109,47.3,110.3,48.1,111.1,50.1L111.1,50.1z"/>
		</g>
		<g>
			<path class="st0" d="M91.7,30.8c2.1,0.8,2.8,2.1,4.5,3.4c1.7,1.4,4.3,1.3,5.9-0.3c0.9-0.9,1.3-2,1.3-3.1c0-1.1-0.4-2.3-1.3-3.1
				c-1.6-1.6-4.1-1.7-5.9-0.3C94.6,28.7,93.8,30,91.7,30.8L91.7,30.8z"/>
		</g>
		<path class="st0" d="M115.9,35.9c-3.3-1.8-6.6-1.8-9.9,0c1.8-3.3,1.8-6.6,0-9.9c3.3,1.8,6.6,1.8,9.9,0
			C114,29.3,114,32.6,115.9,35.9z"/>
		<g>
			<path class="st0" d="M130.4,30.8c-2.1-0.8-2.8-2.1-4.5-3.4c-1.7-1.4-4.3-1.3-5.9,0.3c-0.9,0.9-1.3,2-1.3,3.1
				c0,1.1,0.4,2.3,1.3,3.1c1.6,1.6,4.1,1.7,5.9,0.3C127.6,32.9,128.3,31.6,130.4,30.8L130.4,30.8z"/>
		</g>
		<g>
			<path class="st0" d="M111.1,91.5c-0.8,2.1-2.1,2.8-3.4,4.5c-1.4,1.7-1.3,4.3,0.3,5.9c0.9,0.9,2,1.3,3.1,1.3
				c1.1,0,2.3-0.4,3.1-1.3c1.6-1.6,1.7-4.1,0.3-5.9C113.2,94.3,111.9,93.5,111.1,91.5L111.1,91.5z"/>
		</g>
		<g>
			<path class="st0" d="M111.1,130.1c0.8-2.1,2.1-2.8,3.4-4.5c1.4-1.7,1.3-4.3-0.3-5.9c-0.9-0.9-2-1.3-3.1-1.3
				c-1.1,0-2.3,0.4-3.1,1.3c-1.6,1.6-1.7,4.1-0.3,5.9C109,127.3,110.3,128.1,111.1,130.1L111.1,130.1z"/>
		</g>
		<g>
			<path class="st0" d="M91.7,110.8c2.1,0.8,2.8,2.1,4.5,3.4c1.7,1.4,4.3,1.3,5.9-0.3c0.9-0.9,1.3-2,1.3-3.1c0-1.1-0.4-2.3-1.3-3.1
				c-1.6-1.6-4.1-1.7-5.9-0.3C94.6,108.7,93.8,110,91.7,110.8L91.7,110.8z"/>
		</g>
		<path class="st0" d="M115.9,115.9c-3.3-1.8-6.6-1.8-9.9,0c1.8-3.3,1.8-6.6,0-9.9c3.3,1.8,6.6,1.8,9.9,0
			C114,109.3,114,112.6,115.9,115.9z"/>
		<g>
			<path class="st0" d="M130.4,110.8c-2.1-0.8-2.8-2.1-4.5-3.4c-1.7-1.4-4.3-1.3-5.9,0.3c-0.9,0.9-1.3,2-1.3,3.1
				c0,1.1,0.4,2.3,1.3,3.1c1.6,1.6,4.1,1.7,5.9,0.3C127.6,112.9,128.3,111.6,130.4,110.8L130.4,110.8z"/>
		</g>
		<g>
			<path class="st0" d="M30.7,91.5c-0.8,2.1-2.1,2.8-3.4,4.5c-1.4,1.7-1.3,4.3,0.3,5.9c0.9,0.9,2,1.3,3.1,1.3c1.1,0,2.3-0.4,3.1-1.3
				c1.6-1.6,1.7-4.1,0.3-5.9C32.9,94.3,31.5,93.5,30.7,91.5L30.7,91.5z"/>
		</g>
		<g>
			<path class="st0" d="M30.7,130.1c0.8-2.1,2.1-2.8,3.4-4.5c1.4-1.7,1.3-4.3-0.3-5.9c-0.9-0.9-2-1.3-3.1-1.3
				c-1.1,0-2.3,0.4-3.1,1.3c-1.6,1.6-1.7,4.1-0.3,5.9C28.6,127.3,30,128.1,30.7,130.1L30.7,130.1z"/>
		</g>
		<g>
			<path class="st0" d="M11.4,110.8c2.1,0.8,2.8,2.1,4.5,3.4c1.7,1.4,4.3,1.3,5.9-0.3c0.9-0.9,1.3-2,1.3-3.1c0-1.1-0.4-2.3-1.3-3.1
				c-1.6-1.6-4.1-1.7-5.9-0.3C14.3,108.7,13.5,110,11.4,110.8L11.4,110.8z"/>
		</g>
		<path class="st0" d="M35.5,115.9c-3.3-1.8-6.6-1.8-9.9,0c1.8-3.3,1.8-6.6,0-9.9c3.3,1.8,6.6,1.8,9.9,0
			C33.7,109.3,33.7,112.6,35.5,115.9z"/>
		<g>
			<path class="st0" d="M50.1,110.8c-2.1-0.8-2.8-2.1-4.5-3.4c-1.7-1.4-4.3-1.3-5.9,0.3c-0.9,0.9-1.3,2-1.3,3.1
				c0,1.1,0.4,2.3,1.3,3.1c1.6,1.6,4.1,1.7,5.9,0.3C47.2,112.9,48,111.6,50.1,110.8L50.1,110.8z"/>
		</g>
		<g>
			<g>
				<path class="st0" d="M30.7,11.6c-0.8,2.1-2.1,2.8-3.4,4.5c-1.4,1.7-1.3,4.3,0.3,5.9c0.9,0.9,2,1.3,3.1,1.3
					c1.1,0,2.3-0.4,3.1-1.3c1.6-1.6,1.7-4.1,0.3-5.9C32.9,14.4,31.5,13.6,30.7,11.6L30.7,11.6z"/>
			</g>
			<g>
				<path class="st0" d="M30.7,50.2c0.8-2.1,2.1-2.8,3.4-4.5c1.4-1.7,1.3-4.3-0.3-5.9c-0.9-0.9-2-1.3-3.1-1.3
					c-1.1,0-2.3,0.4-3.1,1.3c-1.6,1.6-1.7,4.1-0.3,5.9C28.6,47.4,30,48.2,30.7,50.2L30.7,50.2z"/>
			</g>
			<g>
				<path class="st0" d="M11.4,30.9c2.1,0.8,2.8,2.1,4.5,3.4c1.7,1.4,4.3,1.3,5.9-0.3c0.9-0.9,1.3-2,1.3-3.1c0-1.1-0.4-2.3-1.3-3.1
					c-1.6-1.6-4.1-1.7-5.9-0.3C14.3,28.8,13.5,30.1,11.4,30.9L11.4,30.9z"/>
			</g>
			<path class="st0" d="M35.5,36c-3.3-1.8-6.6-1.8-9.9,0c1.8-3.3,1.8-6.6,0-9.9c3.3,1.8,6.6,1.8,9.9,0C33.7,29.4,33.7,32.7,35.5,36z
				"/>
			<g>
				<path class="st0" d="M50.1,30.9c-2.1-0.8-2.8-2.1-4.5-3.4c-1.7-1.4-4.3-1.3-5.9,0.3c-0.9,0.9-1.3,2-1.3,3.1
					c0,1.1,0.4,2.3,1.3,3.1c1.6,1.6,4.1,1.7,5.9,0.3C47.2,33,48,31.7,50.1,30.9L50.1,30.9z"/>
			</g>
		</g>
		<g>
			<polygon class="st0" points="83.3,133.4 83.3,126.1 76.1,126.1 70.9,121 65.8,126.1 58.5,126.1 58.5,133.4 53.3,138.6 
				57.9,138.6 60.8,135.7 61.7,134.8 61.7,133.4 61.7,129.4 65.8,129.4 67.1,129.4 68.1,128.4 70.9,125.6 73.8,128.4 74.7,129.4 
				76.1,129.4 80.1,129.4 80.1,133.4 80.1,134.8 81,135.7 83.9,138.6 88.5,138.6 			"/>
			<polygon class="st0" points="15.7,83.3 15.7,76.1 20.8,70.9 15.7,65.8 15.7,58.5 8.4,58.5 3.3,53.4 3.3,58 6.1,60.8 7,61.7 
				8.4,61.7 12.4,61.7 12.4,65.8 12.4,67.1 13.4,68.1 16.2,70.9 13.4,73.8 12.4,74.7 12.4,76.1 12.4,80.1 8.4,80.1 7,80.1 6.1,81 
				3.3,83.9 3.3,88.5 8.4,83.3 			"/>
			<polygon class="st0" points="138.6,83.9 138.5,83.9 135.7,81 134.7,80.1 133.4,80.1 129.3,80.1 129.3,76.1 129.3,74.7 
				128.4,73.8 125.5,70.9 128.4,68.1 129.3,67.1 129.3,65.8 129.3,61.7 133.4,61.7 134.7,61.7 135.7,60.8 138.5,57.9 138.6,58 
				138.6,53.4 138.5,53.3 133.4,58.5 126.1,58.5 126.1,65.8 120.9,70.9 126.1,76.1 126.1,83.3 133.4,83.3 138.5,88.5 138.6,88.5 			
				"/>
			<polygon class="st0" points="58.5,15.7 65.8,15.7 70.9,20.8 76.1,15.7 83.3,15.7 83.3,8.4 88.5,3.3 83.9,3.3 81,6.1 80.1,7.1 
				80.1,8.4 80.1,12.4 76.1,12.4 74.7,12.4 73.8,13.4 70.9,16.2 68.1,13.4 67.1,12.4 65.8,12.4 61.7,12.4 61.7,8.4 61.7,7.1 
				60.8,6.1 57.9,3.3 53.3,3.3 58.5,8.4 			"/>
		</g>
	</g>
</g>
</svg>
