<?xml version="1.0" encoding="utf-8"?>
<!-- Generator: Adobe Illustrator 21.0.0, SVG Export Plug-In . SVG Version: 6.00 Build 0)  -->
<svg version="1.1" id="Layer_1" xmlns="http://www.w3.org/2000/svg" xmlns:xlink="http://www.w3.org/1999/xlink" x="0px" y="0px"
	 viewBox="0 0 1440 360" style="enable-background:new 0 0 1440 360;" xml:space="preserve">
<style type="text/css">
	.st0{opacity:0.45;fill:#BFCFE5;}
	.st1{opacity:0.6;fill:#E4EBF4;}
	.st2{opacity:0.5;fill:#D2DCEC;}
	.st3{opacity:0.3;fill:#E4EBF4;}
	.st4{opacity:0.7;fill:#BFCFE5;}
	.st5{opacity:0.3;fill:#A5BCD9;}
	.st6{opacity:0.2;fill:#D2DCEC;}
	.st7{opacity:0.25;fill:#E4EBF4;}
	.st8{opacity:0;fill:#D2DCEC;}
	.st9{opacity:5.000000e-02;fill:#BFCFE5;}
	.st10{opacity:0.15;fill:#A5BCD9;}
	.st11{opacity:0.35;fill:#E4EBF4;}
	.st12{opacity:0.35;fill:#D2DCEC;}
	.st13{opacity:0.45;fill:#E4EBF4;}
	.st14{opacity:0.15;fill:#D2DCEC;}
	.st15{opacity:0;fill:#A5BCD9;}
	.st16{opacity:0;fill:#BFCFE5;}
	.st17{opacity:0;fill:#E4EBF4;}
	.st18{opacity:0.1;fill:#D2DCEC;}
	.st19{opacity:0.15;fill:#E4EBF4;}
</style>
<rect class="st0" width="120" height="120"/>
<rect x="120" class="st1" width="120" height="120"/>
<rect x="240" class="st2" width="120" height="120"/>
<rect x="360" class="st3" width="120" height="120"/>
<rect x="480" class="st4" width="120" height="120"/>
<rect x="600" class="st5" width="120" height="120"/>
<rect x="720" class="st6" width="120" height="120"/>
<rect x="840" class="st7" width="120" height="120"/>
<rect y="120" class="st8" width="120" height="120"/>
<rect x="120" y="120" class="st9" width="120" height="120"/>
<rect x="240" y="120" class="st10" width="120" height="120"/>
<rect x="360" y="240" class="st6" width="120" height="120"/>
<rect x="960" class="st0" width="120" height="120"/>
<rect x="1080" class="st11" width="120" height="120"/>
<rect x="1200" class="st12" width="120" height="120"/>
<rect x="1320" class="st13" width="120" height="120"/>
<rect x="960" y="120" class="st14" width="120" height="120"/>
<rect x="840" y="240" class="st14" width="120" height="120"/>
<rect x="1080" y="120" class="st9" width="120" height="120"/>
<rect x="1200" y="120" class="st15" width="120" height="120"/>
<rect x="1320" y="120" class="st16" width="120" height="120"/>
<rect x="480" y="120" class="st17" width="120" height="120"/>
<rect x="600" y="120" class="st18" width="120" height="120"/>
<rect x="720" y="120" class="st19" width="120" height="120"/>
<rect x="840" y="120" class="st9" width="120" height="120"/>
</svg>
