<?xml version="1.0" encoding="utf-8"?>
<!-- Generator: Adobe Illustrator 21.0.0, SVG Export Plug-In . SVG Version: 6.00 Build 0)  -->
<svg version="1.1" id="Layer_1" xmlns="http://www.w3.org/2000/svg" xmlns:xlink="http://www.w3.org/1999/xlink" x="0px" y="0px"
	 width="1440px" height="240px" viewBox="0 0 1440 240" style="enable-background:new 0 0 1440 240;" xml:space="preserve">
<style type="text/css">
	.st0{fill:#BFCFE5;}
	.st1{fill:#E4EBF4;}
	.st2{fill:#D2DCEC;}
	.st3{fill:#A5BCD9;}
</style>
<rect class="st0" width="120" height="120"/>
<rect x="120" class="st1" width="120" height="120"/>
<rect x="240" class="st2" width="120" height="120"/>
<rect x="360" class="st1" width="120" height="120"/>
<rect x="480" class="st0" width="120" height="120"/>
<rect x="600" class="st3" width="120" height="120"/>
<rect x="720" class="st2" width="120" height="120"/>
<rect x="840" class="st1" width="120" height="120"/>
<rect y="120" class="st2" width="120" height="120"/>
<rect x="120" y="120" class="st0" width="120" height="120"/>
<rect x="240" y="120" class="st3" width="120" height="120"/>
<rect x="360" y="120" class="st2" width="120" height="120"/>
<rect x="960" class="st0" width="120" height="120"/>
<rect x="1080" class="st1" width="120" height="120"/>
<rect x="1200" class="st2" width="120" height="120"/>
<rect x="1320" class="st1" width="120" height="120"/>
<rect x="960" y="120" class="st2" width="120" height="120"/>
<rect x="1080" y="120" class="st0" width="120" height="120"/>
<rect x="1200" y="120" class="st3" width="120" height="120"/>
<rect x="1320" y="120" class="st0" width="120" height="120"/>
<rect x="480" y="120" class="st1" width="120" height="120"/>
<rect x="600" y="120" class="st2" width="120" height="120"/>
<rect x="720" y="120" class="st1" width="120" height="120"/>
<rect x="840" y="120" class="st0" width="120" height="120"/>
</svg>
